<svg width="88" height="179" viewBox="0 0 88 179" fill="none" xmlns="http://www.w3.org/2000/svg">
<path d="M79.1756 160.349C79.6778 161.339 79.9027 162.446 79.8264 163.553C79.7769 164.522 79.1968 165.781 79.4585 167.966C79.7203 170.151 80.2225 170.844 80.456 172.386C80.5931 173.093 80.588 173.821 80.441 174.527C80.2941 175.232 80.0082 175.901 79.6 176.495C78.6945 177.966 76.6996 179.133 72.7523 178.991C69.5689 178.878 68.2814 177.245 68.2107 175.37L79.1756 160.349Z" fill="#263238"/>
<path d="M78.27 155.837C78.368 156.244 78.4318 156.658 78.461 157.075C78.5813 157.818 78.8006 158.489 78.9775 159.246C79.027 159.437 79.0694 159.628 79.1119 159.819C79.4161 161.283 79.1119 162.796 79.1119 164.289C79.234 166.052 79.5447 167.797 80.0386 169.494C80.746 172.591 80.8663 174.663 78.1569 176.806C76.742 177.938 75.1645 177.973 73.3535 178.023C71.9608 178.071 70.5813 177.738 69.3637 177.061C68.2036 176.205 68.2177 175.484 68.2106 175.208C68.1045 171.919 69.293 168.093 69.5335 164.812C69.623 163.928 69.6419 163.039 69.5901 162.153C69.4769 161.064 69.102 159.982 68.9817 158.885C68.8973 158.477 68.9495 158.052 69.1303 157.676C69.3132 157.468 69.5385 157.302 69.7911 157.189C70.0437 157.075 70.3177 157.017 70.5946 157.018C72.0094 156.827 73.4809 156.686 74.9311 156.58C75.2721 156.515 75.625 156.586 75.9144 156.778C76.1973 157.033 76.2044 157.485 76.2822 157.832C76.36 158.178 76.6289 158.624 76.9896 158.539C77.109 158.5 77.2142 158.427 77.2923 158.329C77.3703 158.231 77.4176 158.112 77.4282 157.987C77.4636 157.747 77.5697 155.866 77.5626 155.59C77.5909 155.604 78.1003 155.526 78.27 155.837Z" fill="#37474F"/>
<path d="M30.3641 166.75C30.1311 167.331 30.1311 167.979 30.3641 168.56C30.5975 169.098 33.2928 170.767 37.0208 170.682C39.7796 170.593 42.4652 169.773 44.8024 168.305C46.2526 167.421 47.7382 167.308 49.5845 167.273C51.4308 167.238 53.5955 166.566 54.2251 165.738C54.4619 164.928 54.4619 164.066 54.2251 163.256L30.3641 166.75Z" fill="#263238"/>
<path d="M43.8615 155.738C43.7186 156.004 43.5911 156.278 43.4796 156.559C43.0225 157.569 42.3167 158.448 41.4281 159.112C40.1417 160.001 38.761 160.746 37.3109 161.332C36.3913 161.743 35.4292 161.856 34.4813 162.181C33.4306 162.517 32.4181 162.963 31.4606 163.511C29.9609 164.43 29.6779 166.898 31.2979 167.945C32.7127 168.843 36.4408 169.911 40.4448 168.949C42.6307 168.426 45.1137 166.212 47.9575 166.12C49.7614 166.056 53.1923 165.689 54.4091 164.366C54.8547 162.393 54.3666 161.834 53.9634 160.123C53.7477 159.176 53.6339 158.209 53.6239 157.238C53.6239 156.728 53.9634 155.264 52.9164 155.116L52.8103 156.212C52.8103 156.212 52.6052 156.58 51.4875 156.778C51.1267 156.842 50.8437 157.315 50.6527 157.747C50.4617 158.178 50.3415 158.511 49.9453 158.504C49.8217 158.486 49.705 158.436 49.6068 158.359C49.5087 158.282 49.4327 158.181 49.3865 158.065C49.3012 157.835 49.2326 157.598 49.1813 157.358C49.0382 156.972 48.8129 156.623 48.5209 156.333C48.2289 156.044 47.8773 155.822 47.4906 155.682C46.8491 155.465 46.1842 155.325 45.5098 155.264C45.0005 155.187 44.576 154.967 44.095 155.406C44.003 155.506 43.9245 155.618 43.8615 155.738Z" fill="#37474F"/>
<path d="M72.8866 71.6228C73.594 82.4219 73.969 88.709 75.9002 118.178C77.3214 123.222 78.2245 128.397 78.5954 133.624C78.9774 140.144 79.9042 159.791 79.9042 159.791C79.9042 159.791 74.6481 164.105 68.5856 162.11C68.5856 162.11 63.0819 133.228 61.1577 124.218C59.3185 115.569 57.9036 106.113 57.9036 106.113L56.5383 118.178C56.5383 118.178 56.7789 123.546 56.6091 131.559C56.5242 135.845 54.4868 159.041 54.4868 159.041C54.4868 159.041 47.1085 162.393 42.1283 158.086C42.1283 158.086 41.7676 120.47 41.6897 116.594C41.6049 112.167 42.3972 67.6483 42.3972 67.6483L72.8866 71.6228Z" fill="#455A64"/>
<path d="M57.8754 106.121L54.1048 86.3682C54.1048 86.3682 48.2757 85.859 45.057 82.6058C45.057 82.6058 45.63 85.7953 52.9588 87.7048L56.602 105.894L56.5383 118.178L57.8754 106.121Z" fill="#37474F"/>
<path d="M79.7344 156.248C77.4937 158.187 74.6121 159.226 71.6487 159.161C71.6487 159.161 76.6713 158.412 79.6849 155.102L79.7344 156.248Z" fill="#37474F"/>
<path d="M54.7203 156.304C54.7203 156.304 49.5774 158.101 45.241 156.729C45.241 156.729 48.587 158.977 54.6425 157.132L54.7203 156.304Z" fill="#37474F"/>
<path d="M0.475826 31.4392C0.439268 31.2702 0.366909 31.111 0.26361 30.9724C0.0837554 30.6462 -0.00702644 30.2783 0.000424349 29.9059C0.00787514 29.5335 0.113294 29.1696 0.306053 28.8508C0.431112 28.695 0.535717 28.5239 0.617317 28.3416C0.7588 27.9526 0.581946 27.5142 0.617317 27.0969C0.744652 25.2369 4.11193 26.0502 5.18012 26.3897C5.49138 26.4958 7.30236 26.9625 8.00978 27.2101C7.94649 26.1894 8.0468 25.1651 8.3069 24.1761C8.78794 22.2454 10.3796 22.4435 10.4716 23.6245C10.5591 24.6937 10.7583 25.7509 11.0658 26.7787C11.2639 27.5354 11.7732 28.285 12.0633 29.4024C12.4806 30.8168 12.3745 31.6089 13.7894 32.9384C15.9116 34.9399 26.8058 42.3231 26.8058 42.3231C29.5222 40.5763 40.0344 34.1124 43.9747 31.9766C47.7876 29.9045 49.733 31.5735 49.733 31.5735L46.4082 43.8153C46.4082 43.8153 33.2998 50.5763 28.5743 52.6413C25.2777 54.0557 23.8205 53.2637 20.1844 50.0246C17.2981 47.2948 13.4922 43.3486 9.38216 39.7135C7.74096 38.2567 6.55252 37.5141 5.39236 37.4575C4.95376 37.4575 4.51516 37.408 4.08364 37.3656C3.10741 37.2524 1.96139 37.012 1.48742 36.0431C1.32472 35.7178 1.2469 35.3359 1.11249 35.0106C0.907344 34.4872 0.581933 34.0205 0.40508 33.4972C0.259354 33.1464 0.210505 32.7629 0.26361 32.3868C0.26361 32.0827 0.518271 31.7786 0.475826 31.4392Z" fill="#E8F5E9"/>
<path d="M50.4262 30.6331C47.0731 30.6331 45.7715 30.6331 41.5128 33.0517C37.2542 35.4704 28.9492 40.9654 28.9492 40.9654C28.9492 40.9654 32.6702 43.0375 33.4129 50.3925L46.8538 44.0842L50.4262 30.6331Z" fill="#455A64"/>
<path d="M6.7152 28.3346C7.82583 28.6033 8.17245 29.3035 8.25027 30.8664C8.29271 31.7929 8.68179 33.4831 9.73584 34.0984C9.24786 34.0808 8.77671 33.9155 8.38468 33.6245C7.87534 33.1648 7.74095 33.1224 7.49335 33.4194C7.31039 33.6188 7.08239 33.7716 6.82838 33.865C7.01044 34.0472 7.12876 34.2833 7.16573 34.5382C7.20269 34.793 7.15632 35.053 7.03352 35.2794C6.602 36.1139 4.43024 36.2766 2.59097 35.4774C2.59097 35.4774 5.54088 36.1846 6.12803 35.2228C6.71518 34.261 5.13058 33.2143 4.0058 32.981C4.0058 32.981 6.83546 33.4548 7.20331 32.5142C7.57117 31.5736 6.36856 30.9583 4.69907 30.6542C4.69907 30.6542 7.03353 30.9159 7.37308 30.1026C7.50021 29.7786 7.5034 29.4191 7.38202 29.093C7.26064 28.7668 7.02323 28.4968 6.7152 28.3346Z" fill="#C8E6C9"/>
<path d="M26.7774 42.3444C28.2493 43.3271 29.3887 44.7325 30.0456 46.3755C30.0456 46.3755 30.2791 43.2709 27.7254 41.7433L26.7774 42.3444Z" fill="#C8E6C9"/>
<path d="M41.9939 42.7263C42.4113 34.4024 45.7644 31.0432 50.4262 30.633L60.9031 29.9258C63.7327 30.5835 71.0898 31.9979 71.0898 31.9979C74.1388 32.9102 76.2822 40.8592 75.5677 45.3854C74.8532 49.9115 73.3606 53.3627 72.9432 60.9794C73.0635 68.1929 73.1696 69.6215 73.1696 72.4503C66.6543 76.5875 49.1529 77.4503 42.2698 73.299C42.2698 73.299 42.1495 66.3259 42.008 61.8846C41.7675 54.2679 41.8524 45.5905 41.9939 42.7263Z" fill="#4CAF4F"/>
<path d="M44.7457 7.41528C44.3245 7.65572 43.976 8.00536 43.7369 8.42732C43.4978 8.84927 43.3771 9.3279 43.3875 9.81272C43.3709 10.5388 43.5784 11.2525 43.9817 11.8566C44.5917 12.627 45.436 13.1781 46.3869 13.4266C46.7968 13.5246 47.1969 13.6596 47.5824 13.8297C48.0628 14.172 48.5125 14.5553 48.9265 14.9754C49.5703 15.4704 50.207 15.9796 50.8649 16.4605C52.1693 17.4344 53.5325 18.3272 54.9466 19.1338C56.3055 19.9115 57.725 20.5784 59.1911 21.1281C60.7403 21.7009 62.0207 21.1988 63.6761 21.3473L63.4356 25.831C63.4356 25.831 63.9874 24.7985 64.617 23.568C65.1617 22.5071 67.4466 17.1041 67.4466 17.1041C68.338 14.9824 69.4698 12.7618 69.3354 10.3926C69.2222 8.4761 68.8402 6.79293 67.3829 5.97964C67.2627 3.77315 66.7604 2.69819 65.2112 1.51715C64.0681 0.744411 62.7551 0.259175 61.3841 0.10273C59.8354 -0.0760672 58.2687 -0.0212387 56.7364 0.265385C54.4444 0.633134 52.1523 1.22012 49.832 1.0999C48.5921 0.967769 47.3387 1.04667 46.1252 1.33327C45.3543 1.58322 44.6849 2.07571 44.217 2.73722C43.7491 3.39873 43.5077 4.19378 43.529 5.00369C43.4794 5.84527 44.1515 7.2314 44.7457 7.41528Z" fill="#37474F"/>
<path d="M59.2619 7.98813C59.2619 9.40255 60.5635 11.404 62.5443 13.1295C62.3104 14.4385 62.3465 15.7813 62.6504 17.0758C62.772 17.4781 62.9584 17.8579 63.2022 18.2002C63.2925 18.3435 63.4137 18.4648 63.5569 18.5554C63.7 18.6459 63.8616 18.7034 64.0298 18.7236C64.4896 18.7236 64.6736 18.4831 64.8151 18.1224C65.0239 17.6655 65.2602 17.2215 65.5225 16.7929C65.6392 16.6099 65.7743 16.4393 65.9257 16.2837C66.6331 15.6401 68.6775 14.8693 69.6326 17.0475C70.5876 19.2257 68.7978 22.3091 67.1424 22.7688C64.3128 23.568 63.669 21.6231 63.669 21.6231L63.7186 31.0573C62.9192 33.4477 58.4908 35.7744 54.9254 35.3006C51.3601 34.8267 52.4919 32.6768 53.9421 31.22L53.7582 27.9456C52.489 28.0714 51.2086 28.0238 49.9523 27.8042C48.4738 27.5213 47.2571 26.1351 46.6416 23.8791C45.6612 19.5809 45.5171 15.1343 46.2172 10.7816C46.7548 8.1225 47.4127 6.97682 47.731 6.66565C47.731 7.24556 48.8417 9.02066 51.7208 9.4167C54.7627 9.85517 57.0689 8.89336 59.2619 7.98813Z" fill="#E8F5E9"/>
<path d="M53.744 27.9597C56.3756 27.7193 58.512 27.3586 59.9975 26.5453C61.087 25.9725 62.0278 24.1832 62.3108 23.5468C62.3108 23.5468 62.24 25.9937 60.7757 27.3515C58.71 29.2681 53.8218 29.2681 53.8218 29.2681L53.744 27.9597Z" fill="#C8E6C9"/>
<path d="M55.1235 15.9513C55.125 16.1383 55.1814 16.3207 55.2857 16.4759C55.39 16.6311 55.5376 16.7523 55.7102 16.8244C55.8828 16.8966 56.0727 16.9164 56.2565 16.8816C56.4403 16.8467 56.6098 16.7587 56.7439 16.6284C56.8781 16.4981 56.971 16.3313 57.0112 16.1486C57.0514 15.966 57.037 15.7756 56.9699 15.6011C56.9028 15.4265 56.7859 15.2755 56.6338 15.1668C56.4816 15.0581 56.3008 14.9964 56.1139 14.9895C55.9857 14.9876 55.8584 15.011 55.7392 15.0583C55.62 15.1057 55.5114 15.176 55.4194 15.2653C55.3274 15.3546 55.254 15.4612 55.2032 15.5789C55.1524 15.6966 55.1253 15.8231 55.1235 15.9513Z" fill="#263238"/>
<path d="M55.4702 12.8325L57.7834 13.7872C57.9039 13.4715 57.8975 13.1215 57.7656 12.8104C57.6338 12.4993 57.3867 12.2512 57.076 12.1182C56.924 12.056 56.761 12.0252 56.5968 12.0277C56.4326 12.0302 56.2706 12.0659 56.1205 12.1326C55.9705 12.1994 55.8355 12.2958 55.7238 12.4161C55.612 12.5363 55.5257 12.678 55.4702 12.8325Z" fill="#263238"/>
<path d="M56.3756 21.0997L52.8386 22.5142C52.9224 22.7513 53.0535 22.9689 53.2239 23.154C53.3942 23.339 53.6004 23.4876 53.8298 23.5907C54.0593 23.6939 54.3073 23.7494 54.5588 23.754C54.8104 23.7586 55.0602 23.7121 55.2933 23.6174C55.7624 23.4168 56.1365 23.0436 56.338 22.5749C56.5394 22.1062 56.5529 21.5781 56.3756 21.0997Z" fill="#388E3B"/>
<path d="M54.3171 23.5821C54.3139 23.641 54.3139 23.7 54.3171 23.7589C54.649 23.8124 54.9893 23.7733 55.3004 23.6457C55.6568 23.4932 55.96 23.2385 56.1715 22.9137C56.3831 22.5889 56.4935 22.2087 56.4888 21.8211C56.3635 21.793 56.2354 21.7788 56.1069 21.7787C55.6309 21.7824 55.1757 21.9741 54.8404 22.3119C54.5052 22.6497 54.3171 23.1062 54.3171 23.5821Z" fill="#C8E6C9"/>
<path d="M46.8114 13.7306L49.0963 12.8466C49.0437 12.6966 48.9613 12.5588 48.854 12.4414C48.7468 12.3239 48.617 12.2294 48.4723 12.1634C48.3276 12.0973 48.1711 12.0611 48.0122 12.057C47.8532 12.0529 47.695 12.0809 47.5471 12.1394C47.2394 12.254 46.9894 12.4856 46.8516 12.7836C46.7138 13.0816 46.6993 13.422 46.8114 13.7306Z" fill="#263238"/>
<path d="M47.3986 15.7462C47.391 15.8746 47.409 16.0033 47.4516 16.1246C47.4943 16.246 47.5607 16.3577 47.6469 16.4531C47.7332 16.5486 47.8376 16.6259 47.9541 16.6806C48.0705 16.7353 48.1968 16.7662 48.3253 16.7716C48.5238 16.7856 48.7219 16.74 48.8942 16.6406C49.0665 16.5411 49.2052 16.3924 49.2923 16.2136C49.3794 16.0348 49.4111 15.834 49.3832 15.6371C49.3553 15.4402 49.2691 15.2561 49.1357 15.1085C49.0023 14.9609 48.8278 14.8565 48.6347 14.8089C48.4415 14.7612 48.2385 14.7723 48.0517 14.8409C47.865 14.9095 47.703 15.0323 47.5866 15.1936C47.4702 15.3549 47.4047 15.5474 47.3986 15.7462Z" fill="#263238"/>
<path d="M52.4778 20.633L48.9549 19.9683L52.2797 14.3389L52.4778 20.633Z" fill="#C8E6C9"/>
<path d="M71.6982 32.1676C76.1054 32.9314 78.7724 34.3458 79.9042 37.8253C81.51 42.7758 86.0021 56.7997 86.9288 61.7856C87.4948 64.8478 88.379 66.7855 85.7828 68.8011C79.596 73.2763 73.1366 77.3625 66.4421 81.0358C60.5564 84.1192 51.6713 84.7274 51.6713 84.7274L58.1159 80.8307L59.2619 78.6454L76.4874 63.3909L69.9792 44.169C69.9792 44.169 68.338 34.2892 71.6982 32.1676Z" fill="#E8F5E9"/>
<path d="M76.4874 63.3909C77.8873 62.6699 79.4401 62.2964 81.0148 62.3018C81.0148 62.3018 79.4868 60.9864 76.1125 62.3018L76.4874 63.3909Z" fill="#C8E6C9"/>
<path d="M71.0898 31.9979C73.1059 32.3727 75.3343 32.592 77.3857 33.8933C79.4372 35.1945 79.8122 36.7716 81.3897 41.6301C82.9672 46.4887 84.8277 53.6527 84.8277 53.6527C84.8277 53.6527 80.9653 56.92 74.3156 57.0119C74.3156 57.0119 71.0403 47.9243 70.2338 45.9017C69.4274 43.879 67.3971 37.3586 71.0898 31.9979Z" fill="#455A64"/>
<path d="M63.9874 75.6539V76.2622C63.9941 76.562 63.9218 76.8584 63.7777 77.1215C63.6337 77.3847 63.423 77.6053 63.1668 77.7614L47.1086 87.5068C46.8483 87.653 46.5547 87.7298 46.2561 87.7298C45.9575 87.7298 45.664 87.653 45.4037 87.5068L15.1547 70.9439C14.8932 70.7972 14.6743 70.5852 14.5193 70.3286C14.3644 70.072 14.2786 69.7796 14.2704 69.48V69.0698L46.2384 86.5945L63.9874 75.6539Z" fill="#4CAF4F"/>
<g opacity="0.5">
<path opacity="0.5" d="M63.9874 75.6539V76.2622C63.9941 76.562 63.9218 76.8584 63.7777 77.1215C63.6337 77.3847 63.423 77.6053 63.1668 77.7614L47.1086 87.5068C46.8483 87.653 46.5547 87.7298 46.2561 87.7298C45.9575 87.7298 45.664 87.653 45.4037 87.5068L15.1547 70.9439C14.8932 70.7972 14.6743 70.5852 14.5193 70.3286C14.3644 70.072 14.2786 69.7796 14.2704 69.48V69.0698L46.2384 86.5945L63.9874 75.6539Z" fill="white"/>
</g>
<g opacity="0.1">
<path opacity="0.1" d="M63.9874 75.6539V76.2622C63.9941 76.562 63.9218 76.8584 63.7777 77.1215C63.6337 77.3847 63.423 77.6053 63.1668 77.7614L47.1086 87.5068C46.8483 87.653 46.5547 87.7298 46.2561 87.7298C45.9575 87.7298 45.664 87.653 45.4037 87.5068L15.1547 70.9439C14.8932 70.7972 14.6743 70.5852 14.5193 70.3286C14.3644 70.072 14.2786 69.7796 14.2704 69.48V69.0698L46.2384 86.5945L63.9874 75.6539Z" fill="#103E13"/>
</g>
<path d="M14.2633 69.0698L31.7435 58.4616C31.8986 58.3729 32.0742 58.3263 32.2528 58.3263C32.4315 58.3263 32.6071 58.3729 32.7622 58.4616L63.8883 75.5195C63.9221 75.5396 63.95 75.5681 63.9694 75.6022C63.9888 75.6363 63.9989 75.6748 63.9989 75.714C63.9989 75.7533 63.9888 75.7918 63.9694 75.8259C63.95 75.86 63.9221 75.8885 63.8883 75.9085L46.2384 86.6227L14.2633 69.0698Z" fill="#4CAF4F"/>
<g opacity="0.85">
<path opacity="0.85" d="M14.2633 69.0698L31.7435 58.4616C31.8986 58.3729 32.0742 58.3263 32.2528 58.3263C32.4315 58.3263 32.6071 58.3729 32.7622 58.4616L63.8883 75.5195C63.9221 75.5396 63.95 75.5681 63.9694 75.6022C63.9888 75.6363 63.9989 75.6748 63.9989 75.714C63.9989 75.7533 63.9888 75.7918 63.9694 75.8259C63.95 75.86 63.9221 75.8885 63.8883 75.9085L46.2384 86.6227L14.2633 69.0698Z" fill="white"/>
</g>
<path d="M46.0827 84.9325L55.5125 79.2112L27.5131 63.8647L18.0338 69.5578L46.0827 84.9325Z" fill="#4CAF4F"/>
<g opacity="0.6">
<path opacity="0.6" d="M46.0827 84.9325L55.5125 79.2112L27.5131 63.8647L18.0338 69.5578L46.0827 84.9325Z" fill="white"/>
</g>
<path d="M50.7234 69.6639L50.5465 69.77L45.9271 72.5776L37.4947 67.9524L37.3179 67.8605L42.1141 64.9468L50.7234 69.6639Z" fill="#4CAF4F"/>
<path d="M50.5466 69.7701L45.9272 72.5777L37.4948 67.9525L42.1213 65.152L50.5466 69.7701Z" fill="#4CAF4F"/>
<g opacity="0.6">
<path opacity="0.6" d="M50.5466 69.7701L45.9272 72.5777L37.4948 67.9525L42.1213 65.152L50.5466 69.7701Z" fill="white"/>
</g>
<path d="M46.2314 86.5945V87.726C45.9328 87.7358 45.6371 87.6649 45.3754 87.5209L15.1547 70.9439C14.8932 70.7972 14.6743 70.5852 14.5193 70.3286C14.3644 70.072 14.2786 69.7796 14.2704 69.48V69.0698L46.2314 86.5945Z" fill="#4CAF4F"/>
<g opacity="0.03">
<path opacity="0.03" d="M46.2314 86.5945V87.726C45.9328 87.7358 45.6371 87.6649 45.3754 87.5209L15.1547 70.9439C14.8932 70.7972 14.6743 70.5852 14.5193 70.3286C14.3644 70.072 14.2786 69.7796 14.2704 69.48V69.0698L46.2314 86.5945Z" fill="white"/>
</g>
<g opacity="0.2">
<path opacity="0.2" d="M46.2314 86.5945V87.726C45.9328 87.7358 45.6371 87.6649 45.3754 87.5209L15.1547 70.9439C14.8932 70.7972 14.6743 70.5852 14.5193 70.3286C14.3644 70.072 14.2786 69.7796 14.2704 69.48V69.0698L46.2314 86.5945Z" fill="#103E13"/>
</g>
<path d="M45.7573 86.8561C45.4776 86.9729 45.175 87.0247 44.8723 87.0076C44.5696 86.9904 44.2748 86.9048 44.01 86.7571L13.9025 70.2508C13.639 70.1047 13.4109 69.9021 13.2348 69.6576C13.0587 69.4131 12.9389 69.1327 12.8839 68.8364L9.20531 49.5013C9.19523 49.3907 9.19523 49.2795 9.20531 49.1689C9.19842 48.9017 9.24494 48.6359 9.34212 48.387C9.4393 48.138 9.58519 47.911 9.77125 47.7191L41.0248 64.876C41.2184 64.9801 41.3863 65.1262 41.5161 65.3037C41.6459 65.4811 41.7342 65.6854 41.7746 65.9015L45.7573 86.8561Z" fill="#4CAF4F"/>
<g opacity="0.4">
<path opacity="0.4" d="M45.7573 86.8561C45.4776 86.9729 45.175 87.0247 44.8723 87.0076C44.5696 86.9904 44.2748 86.9048 44.01 86.7571L13.9025 70.2508C13.639 70.1047 13.4109 69.9021 13.2348 69.6576C13.0587 69.4131 12.9389 69.1327 12.8839 68.8364L9.20531 49.5013C9.19523 49.3907 9.19523 49.2795 9.20531 49.1689C9.19842 48.9017 9.24494 48.6359 9.34212 48.387C9.4393 48.138 9.58519 47.911 9.77125 47.7191L41.0248 64.876C41.2184 64.9801 41.3863 65.1262 41.5161 65.3037C41.6459 65.4811 41.7342 65.6854 41.7746 65.9015L45.7573 86.8561Z" fill="white"/>
</g>
<path d="M46.2313 86.5945L46.0332 86.7147C45.945 86.7688 45.8528 86.8161 45.7574 86.8561L41.7746 65.9298C41.7342 65.7137 41.6459 65.5094 41.5161 65.332C41.3863 65.1545 41.2184 65.0084 41.0248 64.9043L9.73587 47.7474C9.85399 47.6202 9.98979 47.5107 10.1391 47.4221L41.4987 64.6073C41.6911 64.7148 41.8577 64.8629 41.9872 65.0411C42.1167 65.2194 42.2059 65.4237 42.2486 65.6398L46.2313 86.5945Z" fill="#4CAF4F"/>
<g opacity="0.6">
<path opacity="0.6" d="M46.2313 86.5945L46.0332 86.7147C45.945 86.7688 45.8528 86.8161 45.7574 86.8561L41.7746 65.9298C41.7342 65.7137 41.6459 65.5094 41.5161 65.332C41.3863 65.1545 41.2184 65.0084 41.0248 64.9043L9.73587 47.7474C9.85399 47.6202 9.98979 47.5107 10.1391 47.4221L41.4987 64.6073C41.6911 64.7148 41.8577 64.8629 41.9872 65.0411C42.1167 65.2194 42.2059 65.4237 42.2486 65.6398L46.2313 86.5945Z" fill="white"/>
</g>
<path d="M41.4846 65.2934L41.9515 65.0105C42.0993 65.1937 42.2011 65.4095 42.2486 65.6399L46.2314 86.5945L46.0333 86.7148C45.9451 86.7689 45.8528 86.8161 45.7574 86.8562L41.7747 65.9299C41.7298 65.6977 41.6304 65.4796 41.4846 65.2934Z" fill="#4CAF4F"/>
<path opacity="0.5" d="M41.4846 65.2934L41.9515 65.0105C42.0993 65.1937 42.2011 65.4095 42.2486 65.6399L46.2314 86.5945L46.0333 86.7148C45.9451 86.7689 45.8528 86.8161 45.7574 86.8562L41.7747 65.9299C41.7298 65.6977 41.6304 65.4796 41.4846 65.2934Z" fill="white"/>
<path opacity="0.1" d="M41.4846 65.2934L41.9515 65.0105C42.0993 65.1937 42.2011 65.4095 42.2486 65.6399L46.2314 86.5945L46.0333 86.7148C45.9451 86.7689 45.8528 86.8161 45.7574 86.8562L41.7747 65.9299C41.7298 65.6977 41.6304 65.4796 41.4846 65.2934Z" fill="#103E13"/>
<path d="M28.6168 69.3104C28.1137 67.6978 27.0094 66.3404 25.5325 65.5197C24.0823 64.7277 23.099 65.1237 23.3465 66.425C23.5941 67.7262 24.9736 69.4094 26.4309 70.2085C27.8881 71.0077 28.8644 70.6046 28.6168 69.3104Z" fill="#455A64"/>
<path d="M64.5745 73.9425C62.8908 75.1235 60.6201 74.1688 58.3846 74.4375C56.1492 74.7063 54.2392 75.2579 52.4424 75.2084C50.6455 75.1589 49.7684 75.5196 51.0275 76.9552C52.2867 78.3908 55.8875 77.5634 56.8637 78.0019C57.1417 78.1642 57.3792 78.3876 57.5581 78.6552C57.7369 78.9228 57.8526 79.2277 57.8962 79.5466C57.9398 79.8655 57.9103 80.1901 57.8098 80.4959C57.7094 80.8017 57.5407 81.0806 57.3165 81.3116C56.2624 82.5351 63.3153 80.173 64.2562 78.7232C65.197 77.2734 65.8478 74.1264 64.5745 73.9425Z" fill="#E8F5E9"/>
</svg>
