<svg width="136" height="79" viewBox="0 0 136 79" fill="none" xmlns="http://www.w3.org/2000/svg">
<path d="M134.49 2.05956L132.12 0.694649C131.219 0.237986 130.223 0 129.213 0C128.202 0 127.206 0.237986 126.305 0.694649L1.19906 72.9361C-0.399688 73.8555 -0.399688 75.3689 1.19906 76.2883L3.56182 77.6532C4.46418 78.1099 5.46141 78.3479 6.47283 78.3479C7.48425 78.3479 8.48147 78.1099 9.38383 77.6532L47.3861 55.7297L62.7864 64.6123C67.1441 67.1299 74.2819 67.1299 78.6396 64.6123L104.856 49.478C108.577 47.3563 108.577 43.8203 104.856 41.6987L88.3099 32.0735L134.497 5.4188C136.089 4.49236 136.089 2.986 134.49 2.05956Z" fill="#E0E0E0"/>
</svg>
