<svg width="128" height="168" viewBox="0 0 128 168" fill="none" xmlns="http://www.w3.org/2000/svg">
<path d="M3.67558 167.336C3.83875 167.331 3.99754 167.282 4.1354 167.194L125.301 97.1805C125.798 96.8537 126.212 96.4159 126.51 95.9016C126.808 95.3873 126.983 94.8107 127.02 94.2173V2.69025C127.02 2.04669 126.751 1.66479 126.313 1.66479C126.062 1.67165 125.818 1.74487 125.605 1.87696L4.43251 71.8624C3.93559 72.1908 3.52168 72.6299 3.22339 73.1454C2.92509 73.6608 2.75055 74.2384 2.7135 74.8327V165.879C2.70683 166.249 2.81022 166.614 3.01061 166.926C3.07861 167.044 3.17502 167.143 3.29113 167.215C3.40723 167.286 3.53937 167.328 3.67558 167.336Z" fill="#F5F7FA"/>
<path d="M0.810533 166.148C1.01568 166.254 2.47296 167.081 3.10963 167.449C2.87553 167.261 2.68938 167.019 2.56643 166.745C2.44347 166.471 2.3872 166.172 2.40221 165.872V80.9359L0.00408124 79.5215V164.507C-0.0170033 164.827 0.0463912 165.147 0.187921 165.435C0.329452 165.723 0.544152 165.969 0.810533 166.148Z" fill="#F5F7FA"/>
<path d="M126.298 1.98305C126.652 1.98305 126.702 2.42152 126.702 2.69026V94.2103C126.665 94.7483 126.506 95.2708 126.236 95.7379C125.966 96.2049 125.593 96.604 125.145 96.9048L3.97965 166.919C3.88792 166.975 3.78311 167.007 3.67546 167.01C3.34298 167.01 3.05294 166.494 3.05294 165.9V74.8115C3.08594 74.2726 3.24369 73.7487 3.51377 73.2811C3.78384 72.8135 4.15885 72.415 4.60925 72.1171L125.775 2.15279C125.931 2.05117 126.112 1.99262 126.298 1.98305ZM126.298 1.35364C126.002 1.36163 125.714 1.44961 125.464 1.60823L4.29091 71.5654C3.74661 71.922 3.29391 72.4016 2.96947 72.9656C2.64502 73.5295 2.45793 74.1619 2.42334 74.8115V165.879C2.42334 166.82 2.94683 167.626 3.67546 167.626C3.89574 167.622 4.11082 167.558 4.29799 167.442L125.457 97.4281C126.004 97.0751 126.46 96.5975 126.787 96.0346C127.114 95.4716 127.303 94.8392 127.338 94.1891V2.69026C127.338 1.84161 126.914 1.35364 126.298 1.35364Z" fill="#E0E0E0"/>
<path d="M127.332 2.64784V8.92079L2.42413 81.0562L0.026001 79.6418V73.4749C0.0526681 72.8123 0.247412 72.1674 0.591931 71.6008C0.906095 71.0428 1.35628 70.5733 1.90064 70.2359L123.066 0.250396C123.262 0.109466 123.493 0.0244791 123.733 0.00454578C123.974 -0.0153875 124.215 0.0304845 124.432 0.137242C124.778 0.349405 126.419 1.28292 126.752 1.45265C126.804 1.47736 126.852 1.51085 126.893 1.55166C126.95 1.5935 127 1.64355 127.042 1.70018C127.09 1.75838 127.131 1.82256 127.162 1.89112C127.206 1.96065 127.237 2.03723 127.254 2.11743C127.281 2.20026 127.3 2.28553 127.311 2.37203C127.326 2.46316 127.333 2.55545 127.332 2.64784Z" fill="#4CAF4F"/>
<path opacity="0.15" d="M127.332 2.64784V8.92079L2.42413 81.0562L0.026001 79.6418V73.4749C0.0526681 72.8123 0.247412 72.1674 0.591931 71.6008C0.906095 71.0428 1.35628 70.5733 1.90064 70.2359L123.066 0.250396C123.262 0.109466 123.493 0.0244791 123.733 0.00454578C123.974 -0.0153875 124.215 0.0304845 124.432 0.137242C124.778 0.349405 126.419 1.28292 126.752 1.45265C126.804 1.47736 126.852 1.51085 126.893 1.55166C126.95 1.5935 127 1.64355 127.042 1.70018C127.09 1.75838 127.131 1.82256 127.162 1.89112C127.206 1.96065 127.237 2.03723 127.254 2.11743C127.281 2.20026 127.3 2.28553 127.311 2.37203C127.326 2.46316 127.333 2.55545 127.332 2.64784Z" fill="#103E13"/>
<path d="M127.331 2.64793V8.92088L2.42334 81.0563V74.8611C2.42851 74.4618 2.50518 74.0666 2.64971 73.6942C2.67077 73.6287 2.69679 73.5649 2.72753 73.5033C2.80092 73.328 2.886 73.1579 2.9822 72.9941C3.29462 72.4287 3.74786 71.9537 4.29799 71.615L125.457 1.60833C125.659 1.45633 125.902 1.3695 126.155 1.35939C126.408 1.34929 126.658 1.41638 126.871 1.55175C126.928 1.59359 126.978 1.64364 127.02 1.70026C127.068 1.75847 127.109 1.82265 127.14 1.89121C127.184 1.96074 127.215 2.03732 127.232 2.11752C127.259 2.20035 127.278 2.28562 127.289 2.37211C127.311 2.46261 127.325 2.55491 127.331 2.64793Z" fill="#4CAF4F"/>
<path d="M114.789 10.1655C114.417 10.4608 114.119 10.8377 113.916 11.2669C113.714 11.6962 113.613 12.1662 113.622 12.6407C113.622 13.6379 114.145 14.14 114.789 13.7652C115.16 13.4699 115.459 13.093 115.661 12.6638C115.864 12.2345 115.965 11.7644 115.956 11.2899C115.921 10.3352 115.397 9.79066 114.789 10.1655Z" fill="#F5F7FA"/>
<path d="M118.963 7.73269C118.59 8.02726 118.291 8.404 118.089 8.83342C117.886 9.26284 117.786 9.73328 117.795 10.2079C117.795 11.198 118.319 11.7072 118.963 11.3324C119.336 11.0382 119.636 10.6617 119.84 10.2323C120.044 9.80293 120.145 9.3323 120.137 8.85715C120.137 7.85999 119.613 7.35787 118.963 7.73269Z" fill="#F5F7FA"/>
<path d="M123.179 5.29277C122.805 5.58699 122.505 5.96348 122.302 6.39286C122.098 6.82223 121.996 7.29286 122.004 7.76801C122.004 8.76518 122.528 9.2673 123.179 8.89955C123.55 8.60389 123.848 8.22694 124.051 7.79777C124.253 7.36861 124.354 6.89871 124.346 6.42431C124.346 5.42714 123.822 4.92502 123.179 5.29277Z" fill="#F5F7FA"/>
<path d="M125.464 1.60824L4.29798 71.5654C3.74401 71.9169 3.28874 72.4037 2.97511 72.9799L0.598206 71.5654C0.90558 71.0029 1.35417 70.5301 1.89984 70.1935L123.066 0.250396C123.261 0.109466 123.492 0.0244791 123.733 0.00454578C123.973 -0.0153875 124.214 0.0304845 124.431 0.137242C124.763 0.342333 126.32 1.22634 126.716 1.43851C126.509 1.36385 126.287 1.34029 126.069 1.36985C125.851 1.3994 125.643 1.48118 125.464 1.60824Z" fill="#4CAF4F"/>
<g opacity="0.5">
<path opacity="0.5" d="M125.464 1.60824L4.29798 71.5654C3.74401 71.9169 3.28874 72.4037 2.97511 72.9799L0.598206 71.5654C0.90558 71.0029 1.35417 70.5301 1.89984 70.1935L123.066 0.250396C123.261 0.109466 123.492 0.0244791 123.733 0.00454578C123.973 -0.0153875 124.214 0.0304845 124.431 0.137242C124.763 0.342333 126.32 1.22634 126.716 1.43851C126.509 1.36385 126.287 1.34029 126.069 1.36985C125.851 1.3994 125.643 1.48118 125.464 1.60824Z" fill="white"/>
</g>
<path d="M32.7288 84.0548C32.6838 84.0548 32.6406 84.0369 32.6088 84.0051C32.5769 83.9733 32.5591 83.9301 32.5591 83.8851V76.7493C32.5591 76.7043 32.5769 76.6611 32.6088 76.6293C32.6406 76.5975 32.6838 76.5796 32.7288 76.5796C32.7508 76.5796 32.7726 76.584 32.7928 76.5926C32.813 76.6012 32.8312 76.6138 32.8465 76.6297C32.8617 76.6456 32.8735 76.6643 32.8812 76.6849C32.889 76.7055 32.8925 76.7274 32.8915 76.7493V83.8851C32.8925 83.907 32.889 83.9289 32.8812 83.9495C32.8735 83.97 32.8617 83.9888 32.8465 84.0047C32.8312 84.0205 32.813 84.0332 32.7928 84.0418C32.7726 84.0504 32.7508 84.0548 32.7288 84.0548Z" fill="#455A64"/>
<path d="M32.1275 83.2133L32.7005 83.7861L33.2664 83.2133V83.7012L32.7005 84.267L32.1275 83.7012V83.2133Z" fill="#455A64"/>
<path d="M38.7631 84.8327C38.7327 84.8346 38.7025 84.8276 38.6761 84.8125C38.6497 84.7974 38.6283 84.775 38.6145 84.7479C38.6033 84.7289 38.5961 84.708 38.5933 84.6862C38.5904 84.6644 38.592 84.6422 38.598 84.6211C38.6039 84.6 38.6141 84.5802 38.6279 84.5631C38.6417 84.546 38.6588 84.5319 38.6782 84.5215L43.3754 81.8059C43.3949 81.7945 43.4164 81.7872 43.4387 81.7843C43.461 81.7814 43.4837 81.7829 43.5055 81.7888C43.5272 81.7947 43.5475 81.8049 43.5653 81.8188C43.583 81.8326 43.5978 81.8499 43.6088 81.8695C43.6295 81.9081 43.6344 81.9533 43.6225 81.9955C43.6107 82.0377 43.583 82.0736 43.5452 82.0958L38.8409 84.8115C38.8175 84.826 38.7905 84.8333 38.7631 84.8327Z" fill="#455A64"/>
<path d="M43.1632 82.7818L43.3754 82.0039L42.5973 81.7917L43.0146 81.5513L43.7928 81.7564L43.5876 82.5343L43.1632 82.7818Z" fill="#455A64"/>
<path d="M37.893 122.322C37.8626 122.324 37.8324 122.317 37.806 122.302C37.7796 122.287 37.7582 122.264 37.7444 122.237C37.7332 122.218 37.726 122.197 37.7232 122.175C37.7203 122.154 37.7219 122.131 37.7279 122.11C37.7338 122.089 37.744 122.069 37.7578 122.052C37.7716 122.035 37.7887 122.021 37.8081 122.011L42.5053 119.295C42.545 119.274 42.5912 119.269 42.6346 119.281C42.678 119.293 42.7152 119.32 42.7387 119.359C42.7582 119.399 42.7624 119.444 42.7507 119.487C42.739 119.53 42.7121 119.568 42.6751 119.592L37.9708 122.301C37.9475 122.315 37.9204 122.323 37.893 122.322Z" fill="#455A64"/>
<path d="M42.2931 120.271L42.5053 119.493L41.7272 119.288L42.1445 119.041L42.9227 119.253L42.7176 120.031L42.2931 120.271Z" fill="#455A64"/>
<path d="M54.9487 112.478C54.9195 112.478 54.8908 112.47 54.8658 112.455C54.8407 112.44 54.8205 112.419 54.8072 112.393C54.7949 112.374 54.7868 112.353 54.7834 112.331C54.78 112.309 54.7813 112.286 54.7874 112.265C54.7934 112.244 54.804 112.224 54.8184 112.207C54.8328 112.19 54.8507 112.176 54.8709 112.166L59.5681 109.451C59.5867 109.438 59.6078 109.43 59.6298 109.427C59.6518 109.423 59.6743 109.425 59.6958 109.431C59.7173 109.437 59.7372 109.447 59.7542 109.462C59.7712 109.476 59.785 109.494 59.7945 109.514C59.8059 109.533 59.8135 109.553 59.8169 109.575C59.8203 109.596 59.8193 109.618 59.814 109.639C59.8087 109.661 59.7993 109.68 59.7862 109.698C59.7731 109.715 59.7567 109.73 59.7379 109.741L55.0336 112.456C55.0076 112.471 54.9783 112.478 54.9487 112.478Z" fill="#455A64"/>
<path d="M59.3559 110.427L59.5681 109.649L58.79 109.437L59.2073 109.196L59.9855 109.401L59.7733 110.179L59.3559 110.427Z" fill="#455A64"/>
<path d="M56.0735 74.854C56.0444 74.8546 56.0156 74.8469 55.9906 74.8319C55.9656 74.8169 55.9453 74.7951 55.932 74.7692C55.9206 74.7507 55.913 74.7301 55.9096 74.7086C55.9062 74.6871 55.9072 74.6652 55.9125 74.6441C55.9178 74.623 55.9272 74.6031 55.9403 74.5857C55.9534 74.5684 55.9698 74.5538 55.9886 74.5428L60.6929 71.8272C60.7118 71.816 60.7328 71.8088 60.7546 71.8059C60.7764 71.8031 60.7986 71.8047 60.8197 71.8106C60.8409 71.8166 60.8606 71.8268 60.8777 71.8405C60.8948 71.8543 60.909 71.8714 60.9193 71.8908C60.9307 71.9093 60.9384 71.9299 60.9417 71.9514C60.9451 71.9729 60.9441 71.9948 60.9388 72.0159C60.9335 72.037 60.9241 72.0568 60.911 72.0742C60.8979 72.0916 60.8815 72.1062 60.8627 72.1171L56.1584 74.8328C56.1321 74.8464 56.1031 74.8536 56.0735 74.854Z" fill="#455A64"/>
<path d="M60.4524 72.8031L60.6646 72.0251L59.8864 71.813L60.3038 71.5725L61.082 71.7776L60.8697 72.5626L60.4524 72.8031Z" fill="#455A64"/>
<path d="M55.741 93.7082C55.7116 93.7092 55.6824 93.7026 55.6564 93.6889C55.6304 93.6753 55.6083 93.6551 55.5924 93.6304C55.5811 93.611 55.5737 93.5894 55.5708 93.5671C55.5679 93.5448 55.5694 93.5221 55.5754 93.5004C55.5813 93.4787 55.5915 93.4584 55.6053 93.4406C55.6192 93.4229 55.6364 93.4081 55.6561 93.397L60.3533 90.6814C60.3927 90.6588 60.4394 90.6529 60.4832 90.6648C60.527 90.6768 60.5642 90.7056 60.5867 90.745C60.6093 90.7844 60.6152 90.8311 60.6033 90.8749C60.5913 90.9186 60.5625 90.9559 60.5231 90.9784L55.8188 93.687C55.7954 93.7015 55.7684 93.7088 55.741 93.7082Z" fill="#455A64"/>
<path d="M56.0311 92.7181L55.8259 93.4961L56.6041 93.7012L56.1867 93.9416L55.4085 93.7365L55.6137 92.9586L56.0311 92.7181Z" fill="#455A64"/>
<path d="M55.4368 128.772C55.4077 128.772 55.3789 128.765 55.3539 128.75C55.3289 128.735 55.3086 128.713 55.2953 128.687C55.2791 128.667 55.2678 128.644 55.2625 128.619C55.2573 128.594 55.2582 128.569 55.2651 128.544C55.2721 128.52 55.285 128.498 55.3026 128.479C55.3202 128.461 55.342 128.447 55.3661 128.439L59.752 125.9C59.7907 125.88 59.8358 125.875 59.878 125.887C59.9202 125.899 59.9562 125.926 59.9784 125.964C59.9899 125.983 59.9975 126.003 60.0009 126.025C60.0042 126.046 60.0032 126.068 59.998 126.089C59.9927 126.11 59.9832 126.13 59.9701 126.147C59.9571 126.165 59.9406 126.179 59.9218 126.19L55.5288 128.729C55.5025 128.751 55.4707 128.766 55.4368 128.772Z" fill="#455A64"/>
<path d="M55.7339 127.775L55.5217 128.552L56.2999 128.765L55.8825 129.005L55.1043 128.793L55.3166 128.015L55.7339 127.775Z" fill="#455A64"/>
<path d="M38.8409 103.461C38.8117 103.461 38.783 103.453 38.7579 103.438C38.7329 103.423 38.7126 103.402 38.6994 103.376C38.6879 103.357 38.6803 103.337 38.6769 103.315C38.6736 103.294 38.6746 103.272 38.6798 103.251C38.6851 103.23 38.6946 103.21 38.7076 103.192C38.7207 103.175 38.7372 103.16 38.756 103.149L43.4603 100.434C43.4989 100.413 43.5441 100.408 43.5863 100.42C43.6285 100.432 43.6644 100.46 43.6866 100.497C43.698 100.517 43.7053 100.538 43.7082 100.561C43.7112 100.583 43.7096 100.606 43.7037 100.627C43.6978 100.649 43.6876 100.669 43.6737 100.687C43.6599 100.705 43.6426 100.72 43.623 100.731L38.9257 103.439L38.8409 103.461Z" fill="#455A64"/>
<path d="M39.138 102.47L38.9257 103.248L39.7039 103.453L39.2865 103.694L38.5084 103.489L38.7206 102.711L39.138 102.47Z" fill="#455A64"/>
<path d="M65.5812 81.2259C65.5361 81.2259 65.4929 81.208 65.4611 81.1762C65.4293 81.1444 65.4114 81.1012 65.4114 81.0562V75.6177C65.4114 75.5727 65.4293 75.5295 65.4611 75.4977C65.4929 75.4659 65.5361 75.448 65.5812 75.448C65.6262 75.448 65.6694 75.4659 65.7012 75.4977C65.733 75.5295 65.7509 75.5727 65.7509 75.6177V81.0562C65.7509 81.1012 65.733 81.1444 65.7012 81.1762C65.6694 81.208 65.6262 81.2259 65.5812 81.2259Z" fill="#455A64"/>
<path d="M65.0152 80.3915L65.5811 80.9573L66.1541 80.3915V80.8724L65.5811 81.4381L65.0152 80.8724V80.3915Z" fill="#455A64"/>
<path d="M32.7289 115.978C32.7012 115.987 32.6717 115.987 32.644 115.978C32.618 115.965 32.5962 115.945 32.5812 115.92C32.5662 115.895 32.5585 115.866 32.5591 115.837V111.834C32.5591 111.789 32.577 111.746 32.6088 111.714C32.6406 111.682 32.6838 111.664 32.7289 111.664C32.7508 111.664 32.7726 111.669 32.7928 111.677C32.813 111.686 32.8313 111.699 32.8465 111.714C32.8617 111.73 32.8735 111.749 32.8813 111.77C32.889 111.79 32.8925 111.812 32.8916 111.834V115.54L65.4326 96.7563V94.2669C65.4326 94.2219 65.4505 94.1787 65.4823 94.1469C65.5141 94.1151 65.5573 94.0972 65.6024 94.0972C65.6474 94.0972 65.6906 94.1151 65.7224 94.1469C65.7542 94.1787 65.7721 94.2219 65.7721 94.2669V96.8553C65.7712 96.8841 65.7629 96.9123 65.748 96.937C65.7332 96.9618 65.7123 96.9823 65.6872 96.9967L32.7996 115.978C32.7764 115.984 32.7521 115.984 32.7289 115.978Z" fill="#455A64"/>
<path d="M33.2664 112.478L32.7005 111.912L32.1275 112.478V111.997L32.7005 111.424L33.2664 111.997V112.478Z" fill="#455A64"/>
<path d="M32.7289 134.543C32.7012 134.551 32.6717 134.551 32.644 134.543C32.6169 134.529 32.5944 134.507 32.5793 134.481C32.5642 134.455 32.5572 134.424 32.5591 134.394V131.813C32.5591 131.768 32.577 131.725 32.6088 131.693C32.6407 131.661 32.6839 131.643 32.7289 131.643C32.7509 131.643 32.7726 131.647 32.7928 131.656C32.8131 131.665 32.8313 131.677 32.8465 131.693C32.8617 131.709 32.8736 131.728 32.8813 131.748C32.889 131.769 32.8926 131.791 32.8916 131.813V134.097L65.4326 115.314V111.396C65.4326 111.351 65.4505 111.307 65.4823 111.276C65.5142 111.244 65.5574 111.226 65.6024 111.226C65.6474 111.226 65.6906 111.244 65.7224 111.276C65.7543 111.307 65.7722 111.351 65.7722 111.396V115.398C65.7712 115.427 65.7629 115.455 65.7481 115.48C65.7332 115.505 65.7123 115.525 65.6873 115.54L32.7784 134.521C32.7634 134.531 32.7466 134.539 32.7289 134.543Z" fill="#455A64"/>
<path d="M66.1541 112.06L65.5811 111.495L65.0152 112.06V111.579L65.5811 111.014L66.1541 111.579V112.06Z" fill="#455A64"/>
<path d="M25.1737 129.663C25.1458 129.669 25.1167 129.669 25.0888 129.663C25.0628 129.648 25.0412 129.626 25.0263 129.6C25.0114 129.574 25.0036 129.544 25.0039 129.514V111.183C25.0049 111.155 25.0132 111.126 25.028 111.102C25.0429 111.077 25.0638 111.056 25.0888 111.042L26.8715 110.009C26.9047 109.994 26.9419 109.99 26.9775 109.998C27.0132 110.006 27.0455 110.024 27.0696 110.052C27.0809 110.071 27.0882 110.093 27.0912 110.115C27.0941 110.138 27.0925 110.16 27.0866 110.182C27.0807 110.204 27.0705 110.224 27.0566 110.242C27.0428 110.259 27.0255 110.274 27.0059 110.285L25.3152 111.261V129.182L27.1827 128.107C27.2018 128.09 27.2243 128.078 27.2485 128.072C27.2728 128.065 27.2983 128.064 27.3231 128.068C27.348 128.072 27.3715 128.082 27.3921 128.097C27.4127 128.111 27.4297 128.13 27.4421 128.152C27.4544 128.174 27.4617 128.199 27.4634 128.224C27.4651 128.249 27.4612 128.274 27.4519 128.297C27.4427 128.321 27.4283 128.342 27.4099 128.359C27.3915 128.376 27.3695 128.389 27.3455 128.397L25.2232 129.62C25.2093 129.637 25.1925 129.652 25.1737 129.663Z" fill="#455A64"/>
<path d="M26.9988 129.104L27.2039 128.326L26.4258 128.114L26.8502 127.874L27.6213 128.086L27.4162 128.857L26.9988 129.104Z" fill="#455A64"/>
<path d="M71.9549 119.246C71.9257 119.246 71.897 119.238 71.872 119.223C71.847 119.208 71.8267 119.187 71.8134 119.161C71.8021 119.141 71.7947 119.12 71.7918 119.097C71.7889 119.075 71.7904 119.052 71.7964 119.031C71.8023 119.009 71.8125 118.989 71.8263 118.971C71.8402 118.953 71.8574 118.938 71.8771 118.927L73.6456 117.909V101.714L72.1176 102.591C72.0991 102.602 72.0785 102.61 72.057 102.613C72.0355 102.617 72.0136 102.616 71.9924 102.61C71.9713 102.605 71.9515 102.596 71.9341 102.582C71.9167 102.569 71.9021 102.553 71.8912 102.534C71.8796 102.515 71.8718 102.494 71.8684 102.472C71.865 102.45 71.8659 102.427 71.8711 102.406C71.8764 102.384 71.8859 102.364 71.899 102.346C71.9122 102.328 71.9288 102.312 71.9478 102.301L73.7305 101.275C73.7565 101.261 73.7857 101.254 73.8154 101.254C73.845 101.254 73.8742 101.261 73.9003 101.275C73.925 101.291 73.9452 101.313 73.9588 101.339C73.9724 101.365 73.9791 101.395 73.9781 101.424V118.001C73.9785 118.029 73.9716 118.057 73.958 118.082C73.9443 118.107 73.9244 118.128 73.9003 118.142L72.0398 119.246C72.0119 119.253 71.9827 119.253 71.9549 119.246Z" fill="#455A64"/>
<path d="M72.252 118.241L72.0469 119.019L72.825 119.224L72.4006 119.472L71.6224 119.26L71.8346 118.482L72.252 118.241Z" fill="#455A64"/>
<path d="M37.7727 69.3943C37.7727 71.2967 35.5019 74.1468 32.7006 75.7592C29.8992 77.3717 27.6213 77.1736 27.6213 75.243C27.6213 73.3123 29.8921 70.4905 32.7006 68.8781C35.509 67.2656 37.7727 67.4919 37.7727 69.3943Z" fill="#4CAF4F"/>
<path d="M51.1679 134.288C53.7834 132.099 55.0925 129.356 54.092 128.161C53.0914 126.966 50.16 127.772 47.5446 129.96C44.9291 132.149 43.6199 134.892 44.6205 136.087C45.6211 137.282 48.5524 136.477 51.1679 134.288Z" fill="#4CAF4F"/>
<path d="M37.3199 88.5456L28.074 93.8779C27.7982 94.0335 27.5789 93.8779 27.5789 93.496V88.7365C27.581 88.5498 27.627 88.3661 27.713 88.2003C27.799 88.0345 27.9226 87.8912 28.074 87.7818L37.3199 82.4706C37.5958 82.315 37.8151 82.4706 37.8151 82.8525V87.605C37.8102 87.7892 37.763 87.9699 37.6771 88.133C37.5913 88.296 37.4691 88.4372 37.3199 88.5456Z" fill="#4CAF4F"/>
<path opacity="0.6" d="M37.3199 88.5456L28.074 93.8779C27.7982 94.0335 27.5789 93.8779 27.5789 93.496V88.7365C27.581 88.5498 27.627 88.3661 27.713 88.2003C27.799 88.0345 27.9226 87.8912 28.074 87.7818L37.3199 82.4706C37.5958 82.315 37.8151 82.4706 37.8151 82.8525V87.605C37.8102 87.7892 37.763 87.9699 37.6771 88.133C37.5913 88.296 37.4691 88.4372 37.3199 88.5456Z" fill="white"/>
<path d="M53.9513 78.9345L44.7549 84.2598C44.479 84.4225 44.2527 84.2598 44.2527 83.885V79.1255C44.2556 78.9381 44.3027 78.7541 44.3899 78.5883C44.4772 78.4224 44.6022 78.2794 44.7549 78.1708L53.9513 72.8384C54.2272 72.6757 54.4536 72.8384 54.4536 73.2132V77.9727C54.4517 78.1613 54.4052 78.3467 54.3179 78.5139C54.2306 78.6811 54.105 78.8252 53.9513 78.9345Z" fill="#4CAF4F"/>
<path opacity="0.6" d="M53.9513 78.9345L44.7549 84.2598C44.479 84.4225 44.2527 84.2598 44.2527 83.885V79.1255C44.2556 78.9381 44.3027 78.7541 44.3899 78.5883C44.4772 78.4224 44.6022 78.2794 44.7549 78.1708L53.9513 72.8384C54.2272 72.6757 54.4536 72.8384 54.4536 73.2132V77.9727C54.4517 78.1613 54.4052 78.3467 54.3179 78.5139C54.2306 78.6811 54.105 78.8252 53.9513 78.9345Z" fill="white"/>
<path d="M53.9513 97.605L44.7549 102.937C44.479 103.1 44.2527 102.937 44.2527 102.562V97.803C44.2562 97.6157 44.3035 97.4319 44.3907 97.2661C44.4779 97.1004 44.6026 96.9573 44.7549 96.8482L53.9513 91.5159C54.2272 91.3532 54.4536 91.5159 54.4536 91.8907V96.6502C54.4506 96.8376 54.4035 97.0216 54.3163 97.1875C54.2291 97.3533 54.104 97.4963 53.9513 97.605Z" fill="#4CAF4F"/>
<path opacity="0.6" d="M53.9513 97.605L44.7549 102.937C44.479 103.1 44.2527 102.937 44.2527 102.562V97.803C44.2562 97.6157 44.3035 97.4319 44.3907 97.2661C44.4779 97.1004 44.6026 96.9573 44.7549 96.8482L53.9513 91.5159C54.2272 91.3532 54.4536 91.5159 54.4536 91.8907V96.6502C54.4506 96.8376 54.4035 97.0216 54.3163 97.1875C54.2291 97.3533 54.104 97.4963 53.9513 97.605Z" fill="white"/>
<path d="M53.9513 115.922L44.7549 121.254C44.479 121.41 44.2527 121.254 44.2527 120.872V116.113C44.2562 115.925 44.3035 115.742 44.3907 115.576C44.4779 115.41 44.6026 115.267 44.7549 115.158L53.9513 109.826C54.2272 109.67 54.4536 109.826 54.4536 110.208V114.96C54.4506 115.148 54.4036 115.333 54.3164 115.5C54.2292 115.667 54.1042 115.812 53.9513 115.922Z" fill="#4CAF4F"/>
<path opacity="0.6" d="M53.9513 115.922L44.7549 121.254C44.479 121.41 44.2527 121.254 44.2527 120.872V116.113C44.2562 115.925 44.3035 115.742 44.3907 115.576C44.4779 115.41 44.6026 115.267 44.7549 115.158L53.9513 109.826C54.2272 109.67 54.4536 109.826 54.4536 110.208V114.96C54.4506 115.148 54.4036 115.333 54.3164 115.5C54.2292 115.667 54.1042 115.812 53.9513 115.922Z" fill="white"/>
<path d="M70.2218 106.551L60.983 111.884C60.7071 112.046 60.4807 111.884 60.4807 111.509V106.749C60.4842 106.562 60.5315 106.378 60.6187 106.212C60.7059 106.047 60.8306 105.903 60.983 105.794L70.2218 100.462C70.4977 100.299 70.724 100.462 70.724 100.837V105.596C70.721 105.784 70.674 105.968 70.5868 106.134C70.4995 106.299 70.3745 106.443 70.2218 106.551Z" fill="#4CAF4F"/>
<path opacity="0.6" d="M70.2218 106.551L60.983 111.884C60.7071 112.046 60.4807 111.884 60.4807 111.509V106.749C60.4842 106.562 60.5315 106.378 60.6187 106.212C60.7059 106.047 60.8306 105.903 60.983 105.794L70.2218 100.462C70.4977 100.299 70.724 100.462 70.724 100.837V105.596C70.721 105.784 70.674 105.968 70.5868 106.134C70.4995 106.299 70.3745 106.443 70.2218 106.551Z" fill="white"/>
<path d="M70.2217 123.128L60.9617 128.439C60.6858 128.602 60.4594 128.439 60.4594 128.064V123.305C60.4624 123.118 60.5095 122.934 60.5967 122.768C60.6839 122.602 60.809 122.459 60.9617 122.35L70.2217 117.039C70.4976 116.876 70.724 117.039 70.724 117.414V122.173C70.7204 122.361 70.6732 122.545 70.586 122.71C70.4988 122.876 70.374 123.019 70.2217 123.128Z" fill="#4CAF4F"/>
<path opacity="0.6" d="M70.2217 123.128L60.9617 128.439C60.6858 128.602 60.4594 128.439 60.4594 128.064V123.305C60.4624 123.118 60.5095 122.934 60.5967 122.768C60.6839 122.602 60.809 122.459 60.9617 122.35L70.2217 117.039C70.4976 116.876 70.724 117.039 70.724 117.414V122.173C70.7204 122.361 70.6732 122.545 70.586 122.71C70.4988 122.876 70.374 123.019 70.2217 123.128Z" fill="white"/>
<path d="M37.3199 107.223L28.074 112.555C27.7982 112.718 27.5789 112.555 27.5789 112.173V107.421C27.581 107.233 27.6269 107.049 27.7129 106.882C27.7988 106.715 27.9225 106.57 28.074 106.459L37.3199 101.127C37.5958 100.971 37.8151 101.127 37.8151 101.509V106.268C37.8129 106.455 37.767 106.639 37.681 106.804C37.595 106.97 37.4713 107.114 37.3199 107.223Z" fill="#4CAF4F"/>
<path opacity="0.6" d="M37.3199 107.223L28.074 112.555C27.7982 112.718 27.5789 112.555 27.5789 112.173V107.421C27.581 107.233 27.6269 107.049 27.7129 106.882C27.7988 106.715 27.9225 106.57 28.074 106.459L37.3199 101.127C37.5958 100.971 37.8151 101.127 37.8151 101.509V106.268C37.8129 106.455 37.767 106.639 37.681 106.804C37.595 106.97 37.4713 107.114 37.3199 107.223Z" fill="white"/>
<path d="M65.1142 74.1751L61.2093 68.7225C61.0863 68.4202 61.0654 68.086 61.1497 67.7708C61.2339 67.4555 61.4188 67.1764 61.6762 66.9757L69.4577 62.4707C69.9529 62.1808 70.2288 62.8951 69.9246 63.673L66.0197 73.6376C65.8145 74.2458 65.3547 74.5075 65.1142 74.1751Z" fill="#455A64"/>
<path d="M69.5567 86.2967L65.9348 92.5413C65.7226 92.902 65.4396 93.0718 65.2274 92.9515L61.6054 90.8865C61.2871 90.7026 61.2871 89.9742 61.6054 89.4225L65.2274 83.185C65.4396 82.8243 65.7226 82.6545 65.9348 82.7748L69.5567 84.8398C69.8751 85.0166 69.8751 85.7521 69.5567 86.2967Z" fill="#C8E6C9"/>
<path d="M36.6692 123.588L33.0543 129.854C32.842 130.214 32.552 130.384 32.3469 130.264L28.7249 128.199C28.4066 128.022 28.4066 127.287 28.7249 126.735L32.3469 120.497C32.552 120.137 32.842 119.967 33.0543 120.087L36.6692 122.152C36.9733 122.308 36.9733 123.043 36.6692 123.588Z" fill="#C8E6C9"/>
<path d="M18.998 101.565C18.9688 101.565 18.9402 101.558 18.9143 101.544C18.8885 101.531 18.8663 101.511 18.8494 101.487C18.8284 101.448 18.8233 101.402 18.8351 101.358C18.8469 101.315 18.8748 101.278 18.9131 101.254L29.8214 94.9599C29.8405 94.9483 29.8616 94.9405 29.8836 94.9371C29.9057 94.9337 29.9282 94.9346 29.9499 94.9398C29.9715 94.9451 29.992 94.9546 30.01 94.9677C30.028 94.9809 30.0433 94.9975 30.0549 95.0165C30.0759 95.0562 30.081 95.1024 30.0692 95.1458C30.0574 95.1891 30.0295 95.2263 29.9912 95.2499L19.0829 101.565C19.0549 101.572 19.0259 101.572 18.998 101.565Z" fill="#455A64"/>
<path d="M18.9979 103.178C18.968 103.177 18.9387 103.169 18.9127 103.154C18.8867 103.14 18.8649 103.118 18.8494 103.093C18.8287 103.054 18.8238 103.009 18.8357 102.967C18.8476 102.925 18.8753 102.889 18.9131 102.867L29.8214 96.5654C29.8611 96.5443 29.9073 96.5392 29.9507 96.551C29.9941 96.5629 30.0313 96.5907 30.0548 96.629C30.0755 96.6677 30.0804 96.7128 30.0685 96.755C30.0567 96.7972 30.0289 96.8331 29.9912 96.8553L19.0828 103.157C19.0566 103.17 19.0275 103.177 18.9979 103.178Z" fill="#E0E0E0"/>
<path d="M18.998 104.762C18.9683 104.76 18.9395 104.752 18.9137 104.737C18.8879 104.722 18.8659 104.702 18.8494 104.677C18.8284 104.637 18.8233 104.591 18.8351 104.548C18.8469 104.504 18.8748 104.467 18.9131 104.444L29.8214 98.1495C29.8409 98.1382 29.8624 98.1308 29.8847 98.1279C29.9071 98.125 29.9297 98.1265 29.9515 98.1324C29.9732 98.1384 29.9935 98.1486 30.0113 98.1624C30.029 98.1763 30.0438 98.1935 30.0549 98.2131C30.0755 98.2518 30.0804 98.2969 30.0686 98.3391C30.0567 98.3813 30.029 98.4172 29.9912 98.4394L19.0829 104.741L18.998 104.762Z" fill="#E0E0E0"/>
<path d="M18.998 106.339C18.9688 106.339 18.9402 106.332 18.9143 106.318C18.8885 106.305 18.8663 106.285 18.8494 106.261C18.8284 106.222 18.8233 106.175 18.8351 106.132C18.8469 106.089 18.8748 106.051 18.9131 106.028L29.8214 99.7337C29.8405 99.7221 29.8616 99.7143 29.8836 99.7109C29.9057 99.7075 29.9282 99.7084 29.9499 99.7136C29.9715 99.7189 29.992 99.7284 30.01 99.7415C30.028 99.7547 30.0433 99.7713 30.0549 99.7903C30.0759 99.83 30.081 99.8762 30.0692 99.9196C30.0574 99.9629 30.0295 100 29.9912 100.024L19.0829 106.318C19.0566 106.331 19.0275 106.339 18.998 106.339Z" fill="#E0E0E0"/>
<path d="M14.2016 83.086C14.1725 83.0865 14.1437 83.0788 14.1187 83.0638C14.0937 83.0488 14.0734 83.0271 14.0601 83.0011C14.0485 82.9821 14.0408 82.9609 14.0373 82.9389C14.0339 82.9169 14.0348 82.8944 14.0401 82.8727C14.0453 82.851 14.0548 82.8306 14.0679 82.8126C14.0811 82.7946 14.0977 82.7793 14.1167 82.7677L25.0321 76.4736C25.0694 76.4617 25.1095 76.4631 25.1459 76.4774C25.1822 76.4918 25.2125 76.5182 25.2316 76.5523C25.2507 76.5863 25.2575 76.6259 25.2508 76.6644C25.2441 76.7029 25.2243 76.7379 25.1948 76.7635L14.2865 83.0647C14.2602 83.0783 14.2312 83.0855 14.2016 83.086Z" fill="#455A64"/>
<path d="M14.2016 84.6631C14.1733 84.6635 14.1454 84.6566 14.1205 84.6429C14.0957 84.6293 14.0749 84.6094 14.0601 84.5853C14.0485 84.5662 14.0408 84.5451 14.0373 84.5231C14.0339 84.501 14.0348 84.4785 14.0401 84.4569C14.0453 84.4352 14.0548 84.4147 14.0679 84.3967C14.0811 84.3787 14.0977 84.3635 14.1167 84.3519L25.0321 78.0577C25.0506 78.0463 25.0712 78.0386 25.0927 78.0353C25.1142 78.0319 25.1362 78.0329 25.1573 78.0382C25.1784 78.0435 25.1982 78.0529 25.2156 78.066C25.233 78.0791 25.2476 78.0955 25.2585 78.1143C25.2698 78.1337 25.2772 78.1553 25.2801 78.1776C25.283 78.1999 25.2815 78.2226 25.2755 78.2443C25.2696 78.266 25.2594 78.2863 25.2456 78.3041C25.2317 78.3218 25.2145 78.3366 25.1948 78.3477L14.2865 84.6418C14.2602 84.6554 14.2312 84.6627 14.2016 84.6631Z" fill="#E0E0E0"/>
<path d="M14.2017 86.2471C14.1725 86.2476 14.1438 86.2399 14.1188 86.2249C14.0938 86.2099 14.0735 86.1882 14.0602 86.1622C14.0488 86.1437 14.0411 86.1231 14.0378 86.1016C14.0344 86.0801 14.0354 86.0582 14.0407 86.0371C14.046 86.016 14.0554 85.9962 14.0685 85.9788C14.0816 85.9614 14.098 85.9468 14.1168 85.9359L25.0322 79.6417C25.0709 79.6211 25.116 79.6162 25.1582 79.628C25.2004 79.6399 25.2363 79.6676 25.2586 79.7054C25.2697 79.7243 25.277 79.7453 25.2798 79.7671C25.2826 79.7889 25.281 79.811 25.2751 79.8321C25.2691 79.8533 25.259 79.873 25.2452 79.8901C25.2314 79.9072 25.2143 79.9214 25.1949 79.9317L14.2866 86.2329C14.2597 86.244 14.2307 86.2489 14.2017 86.2471Z" fill="#E0E0E0"/>
<path d="M14.2017 87.8313C14.1638 87.8319 14.1268 87.8198 14.0966 87.797C14.0664 87.7742 14.0447 87.7419 14.0349 87.7053C14.0251 87.6687 14.0279 87.6299 14.0427 87.5951C14.0576 87.5602 14.0837 87.5314 14.1168 87.513L25.0322 81.2189C25.0511 81.2077 25.0721 81.2005 25.0939 81.1977C25.1157 81.1948 25.1378 81.1964 25.159 81.2024C25.1801 81.2083 25.1999 81.2185 25.217 81.2323C25.2341 81.246 25.2482 81.2632 25.2586 81.2825C25.2697 81.3015 25.2769 81.3224 25.2798 81.3442C25.2826 81.366 25.281 81.3881 25.2751 81.4093C25.2691 81.4304 25.259 81.4502 25.2452 81.4673C25.2314 81.4844 25.2143 81.4985 25.1949 81.5088L14.2866 87.8101L14.2017 87.8313Z" fill="#E0E0E0"/>
<path d="M43.8989 87.0321C43.861 87.0327 43.824 87.0207 43.7938 86.9978C43.7636 86.975 43.7418 86.9427 43.7321 86.9061C43.7223 86.8696 43.7251 86.8308 43.7399 86.7959C43.7548 86.7611 43.7808 86.7322 43.814 86.7139L54.7294 80.4197C54.7483 80.4085 54.7693 80.4013 54.7911 80.3985C54.8129 80.3956 54.835 80.3972 54.8562 80.4032C54.8773 80.4091 54.8971 80.4193 54.9142 80.4331C54.9313 80.4468 54.9454 80.464 54.9557 80.4833C54.9669 80.5023 54.9742 80.5232 54.977 80.545C54.9798 80.5668 54.9782 80.5889 54.9723 80.6101C54.9663 80.6312 54.9562 80.651 54.9424 80.6681C54.9286 80.6852 54.9115 80.6993 54.8921 80.7096L43.9838 87.0038C43.9595 87.0227 43.9296 87.0327 43.8989 87.0321Z" fill="#455A64"/>
<path d="M43.8989 88.6092C43.8698 88.6097 43.841 88.6021 43.816 88.5871C43.791 88.5721 43.7707 88.5503 43.7574 88.5243C43.746 88.5059 43.7384 88.4853 43.735 88.4638C43.7317 88.4423 43.7326 88.4203 43.7379 88.3992C43.7432 88.3781 43.7527 88.3583 43.7657 88.3409C43.7788 88.3235 43.7952 88.309 43.814 88.298L54.7294 81.9968C54.7685 81.9788 54.8129 81.9763 54.8537 81.9898C54.8946 82.0032 54.9288 82.0317 54.9494 82.0694C54.9701 82.1071 54.9756 82.1512 54.965 82.1929C54.9544 82.2345 54.9283 82.2706 54.8921 82.2938L43.9838 88.588L43.8989 88.6092Z" fill="#E0E0E0"/>
<path d="M43.8989 90.1934C43.8698 90.1939 43.841 90.1862 43.816 90.1712C43.791 90.1562 43.7707 90.1345 43.7574 90.1085C43.746 90.09 43.7384 90.0694 43.735 90.0479C43.7317 90.0264 43.7326 90.0045 43.7379 89.9834C43.7432 89.9623 43.7527 89.9425 43.7657 89.9251C43.7788 89.9077 43.7952 89.8931 43.814 89.8822L54.7294 83.581C54.7681 83.5603 54.8132 83.5554 54.8554 83.5673C54.8976 83.5791 54.9336 83.6068 54.9558 83.6446C54.967 83.6635 54.9742 83.6845 54.9771 83.7063C54.9799 83.7281 54.9783 83.7502 54.9723 83.7714C54.9664 83.7925 54.9562 83.8122 54.9424 83.8293C54.9287 83.8464 54.9115 83.8606 54.8921 83.8709L43.9838 90.1721C43.9576 90.1857 43.9285 90.193 43.8989 90.1934Z" fill="#E0E0E0"/>
<path d="M43.8989 91.7775C43.861 91.7782 43.824 91.7661 43.7938 91.7433C43.7636 91.7204 43.7418 91.6882 43.7321 91.6516C43.7223 91.615 43.7251 91.5762 43.7399 91.5413C43.7548 91.5065 43.7808 91.4776 43.814 91.4593L54.7294 85.1651C54.7479 85.1537 54.7685 85.146 54.79 85.1427C54.8115 85.1393 54.8334 85.1403 54.8545 85.1456C54.8756 85.1509 54.8955 85.1603 54.9128 85.1734C54.9302 85.1865 54.9448 85.2029 54.9557 85.2217C54.9671 85.2412 54.9744 85.2627 54.9773 85.285C54.9803 85.3073 54.9787 85.33 54.9728 85.3517C54.9669 85.3734 54.9567 85.3938 54.9428 85.4115C54.929 85.4293 54.9117 85.4441 54.8921 85.4551L43.9838 91.7492C43.9595 91.7681 43.9296 91.7781 43.8989 91.7775Z" fill="#E0E0E0"/>
<path d="M59.6813 59.9813C59.6521 59.9819 59.6234 59.9742 59.5984 59.9592C59.5733 59.9442 59.5531 59.9224 59.5398 59.8965C59.5275 59.8778 59.5194 59.8568 59.516 59.8348C59.5126 59.8127 59.5139 59.7902 59.52 59.7688C59.526 59.7473 59.5366 59.7274 59.551 59.7104C59.5654 59.6934 59.5833 59.6797 59.6035 59.6702L70.5118 53.3689C70.5504 53.3483 70.5956 53.3434 70.6378 53.3552C70.68 53.3671 70.7159 53.3948 70.7381 53.4326C70.7496 53.4511 70.7572 53.4717 70.7606 53.4931C70.7639 53.5146 70.7629 53.5366 70.7577 53.5577C70.7524 53.5788 70.7429 53.5986 70.7299 53.616C70.7168 53.6334 70.7004 53.648 70.6815 53.6589L59.7662 59.9601C59.7402 59.9745 59.711 59.9818 59.6813 59.9813Z" fill="#455A64"/>
<path d="M59.6813 61.5655C59.6525 61.5646 59.6243 61.5563 59.5996 61.5414C59.5748 61.5266 59.5542 61.5057 59.5398 61.4807C59.5197 61.4412 59.5159 61.3954 59.5291 61.3531C59.5423 61.3108 59.5716 61.2754 59.6106 61.2544L70.5189 54.9602C70.5375 54.9479 70.5585 54.9398 70.5806 54.9364C70.6026 54.933 70.6251 54.9343 70.6466 54.9404C70.6681 54.9464 70.688 54.957 70.705 54.9714C70.722 54.9858 70.7358 55.0037 70.7453 55.0239C70.7567 55.0423 70.7643 55.0629 70.7677 55.0844C70.7711 55.1059 70.7701 55.1279 70.7648 55.149C70.7595 55.1701 70.7501 55.1899 70.737 55.2073C70.7239 55.2246 70.7075 55.2392 70.6887 55.2502L59.7733 61.5443C59.7602 61.5539 59.7453 61.5607 59.7295 61.5643C59.7137 61.568 59.6973 61.5684 59.6813 61.5655Z" fill="#E0E0E0"/>
<path d="M59.6813 63.1425C59.6521 63.1431 59.6234 63.1354 59.5984 63.1204C59.5734 63.1054 59.5531 63.0837 59.5398 63.0577C59.5286 63.0388 59.5214 63.0178 59.5186 62.996C59.5157 62.9742 59.5173 62.9521 59.5233 62.9309C59.5292 62.9098 59.5394 62.89 59.5532 62.8729C59.567 62.8558 59.5841 62.8417 59.6035 62.8314L70.5118 56.5372C70.5303 56.5257 70.5509 56.5181 70.5724 56.5148C70.5939 56.5114 70.6158 56.5124 70.6369 56.5177C70.658 56.5229 70.6779 56.5324 70.6953 56.5455C70.7127 56.5585 70.7272 56.575 70.7382 56.5938C70.7498 56.6128 70.7575 56.6339 70.761 56.656C70.7644 56.678 70.7635 56.7005 70.7582 56.7222C70.753 56.7439 70.7435 56.7643 70.7304 56.7823C70.7172 56.8003 70.7006 56.8155 70.6816 56.8272L59.7662 63.1213C59.7402 63.1357 59.711 63.143 59.6813 63.1425Z" fill="#E0E0E0"/>
<path d="M59.6813 64.7267C59.6521 64.7272 59.6234 64.7195 59.5984 64.7045C59.5733 64.6895 59.5531 64.6678 59.5398 64.6418C59.5275 64.6232 59.5194 64.6022 59.516 64.5801C59.5126 64.5581 59.5139 64.5356 59.52 64.5141C59.526 64.4927 59.5366 64.4728 59.551 64.4558C59.5654 64.4387 59.5833 64.425 59.6035 64.4155L70.5118 58.1143C70.5504 58.0936 70.5956 58.0887 70.6378 58.1006C70.68 58.1124 70.7159 58.1402 70.7381 58.1779C70.7496 58.1964 70.7572 58.217 70.7606 58.2385C70.7639 58.26 70.7629 58.2819 70.7577 58.303C70.7524 58.3241 70.7429 58.344 70.7299 58.3613C70.7168 58.3787 70.7004 58.3933 70.6815 58.4042L59.7662 64.7055C59.7402 64.7198 59.711 64.7272 59.6813 64.7267Z" fill="#E0E0E0"/>
<path d="M69.7902 77.6899C69.761 77.6904 69.7323 77.6827 69.7073 77.6677C69.6823 77.6527 69.662 77.631 69.6487 77.605C69.6365 77.5864 69.6283 77.5654 69.6249 77.5433C69.6215 77.5213 69.6229 77.4988 69.6289 77.4773C69.6349 77.4559 69.6455 77.436 69.6599 77.419C69.6743 77.4019 69.6922 77.3882 69.7124 77.3787L80.6207 71.0775C80.6601 71.055 80.7068 71.049 80.7506 71.061C80.7944 71.0729 80.8316 71.1017 80.8541 71.1411C80.8767 71.1805 80.8826 71.2272 80.8707 71.271C80.8587 71.3148 80.8299 71.352 80.7905 71.3745L69.8751 77.6687C69.8491 77.683 69.8199 77.6904 69.7902 77.6899Z" fill="#455A64"/>
<path d="M69.7902 79.274C69.761 79.2746 69.7323 79.2669 69.7073 79.2519C69.6823 79.2369 69.662 79.2151 69.6487 79.1892C69.6374 79.1697 69.6301 79.1482 69.6271 79.1259C69.6242 79.1035 69.6258 79.0809 69.6317 79.0591C69.6376 79.0374 69.6478 79.0171 69.6617 78.9994C69.6755 78.9816 69.6928 78.9668 69.7124 78.9558L80.6207 72.6616C80.6393 72.6494 80.6604 72.6412 80.6824 72.6378C80.7044 72.6344 80.727 72.6358 80.7484 72.6418C80.7699 72.6478 80.7898 72.6584 80.8068 72.6728C80.8239 72.6872 80.8376 72.7051 80.8471 72.7253C80.8585 72.7438 80.8662 72.7644 80.8695 72.7858C80.8729 72.8073 80.8719 72.8293 80.8666 72.8504C80.8613 72.8715 80.8519 72.8913 80.8388 72.9087C80.8257 72.9261 80.8093 72.9406 80.7905 72.9516L69.8751 79.2528C69.8491 79.2672 69.8199 79.2745 69.7902 79.274Z" fill="#E0E0E0"/>
<path d="M69.7902 80.8512C69.7619 80.8516 69.734 80.8447 69.7091 80.831C69.6843 80.8174 69.6635 80.7975 69.6487 80.7734C69.6374 80.7539 69.6301 80.7324 69.6271 80.7101C69.6242 80.6877 69.6258 80.6651 69.6317 80.6433C69.6376 80.6216 69.6478 80.6013 69.6617 80.5836C69.6755 80.5658 69.6928 80.551 69.7124 80.54L80.6207 74.2458C80.6392 74.2344 80.6598 74.2267 80.6813 74.2234C80.7028 74.22 80.7247 74.221 80.7458 74.2263C80.767 74.2316 80.7868 74.241 80.8042 74.2541C80.8216 74.2672 80.8361 74.2836 80.8471 74.3024C80.8587 74.3214 80.8665 74.3426 80.8699 74.3646C80.8733 74.3866 80.8724 74.4091 80.8672 74.4308C80.8619 74.4525 80.8524 74.4729 80.8393 74.4909C80.8261 74.5089 80.8095 74.5242 80.7905 74.5358L69.8751 80.8299C69.8491 80.8443 69.8199 80.8516 69.7902 80.8512Z" fill="#E0E0E0"/>
<path d="M69.7902 82.4707C69.761 82.4712 69.7323 82.4636 69.7073 82.4486C69.6823 82.4336 69.662 82.4118 69.6487 82.3858C69.6365 82.3672 69.6283 82.3462 69.6249 82.3242C69.6215 82.3021 69.6229 82.2796 69.6289 82.2582C69.6349 82.2367 69.6455 82.2168 69.6599 82.1998C69.6743 82.1828 69.6922 82.169 69.7124 82.1595L80.6207 75.8583C80.6594 75.8376 80.7045 75.8327 80.7467 75.8446C80.7889 75.8565 80.8249 75.8842 80.8471 75.9219C80.8585 75.9404 80.8662 75.961 80.8695 75.9825C80.8729 76.004 80.8719 76.026 80.8666 76.0471C80.8613 76.0682 80.8519 76.088 80.8388 76.1054C80.8257 76.1227 80.8093 76.1373 80.7905 76.1483L69.8751 82.4495C69.8491 82.4639 69.8199 82.4712 69.7902 82.4707Z" fill="#E0E0E0"/>
<path d="M69.7902 93.4183C69.761 93.4189 69.7323 93.4112 69.7073 93.3962C69.6823 93.3812 69.662 93.3595 69.6487 93.3335C69.6365 93.3149 69.6283 93.2938 69.6249 93.2718C69.6215 93.2498 69.6229 93.2273 69.6289 93.2058C69.6349 93.1843 69.6455 93.1644 69.6599 93.1474C69.6743 93.1304 69.6922 93.1167 69.7124 93.1072L80.6207 86.8059C80.6594 86.7853 80.7045 86.7804 80.7467 86.7922C80.7889 86.8041 80.8249 86.8318 80.8471 86.8696C80.8585 86.8881 80.8662 86.9087 80.8695 86.9301C80.8729 86.9516 80.8719 86.9736 80.8666 86.9947C80.8613 87.0158 80.8519 87.0356 80.8388 87.053C80.8257 87.0704 80.8093 87.085 80.7905 87.0959L69.8751 93.3971C69.8491 93.4115 69.8199 93.4188 69.7902 93.4183Z" fill="#455A64"/>
<path d="M69.7902 95.0023C69.7614 95.0014 69.7332 94.9931 69.7085 94.9782C69.6837 94.9634 69.6632 94.9425 69.6487 94.9175C69.6374 94.898 69.6301 94.8765 69.6271 94.8542C69.6242 94.8318 69.6258 94.8092 69.6317 94.7874C69.6376 94.7657 69.6478 94.7454 69.6617 94.7277C69.6755 94.7099 69.6928 94.6951 69.7124 94.6841L80.6207 88.3899C80.6393 88.3776 80.6604 88.3695 80.6824 88.3661C80.7044 88.3627 80.727 88.364 80.7484 88.3701C80.7699 88.3761 80.7898 88.3867 80.8068 88.4011C80.8239 88.4155 80.8376 88.4334 80.8471 88.4536C80.8585 88.472 80.8662 88.4926 80.8695 88.5141C80.8729 88.5356 80.8719 88.5576 80.8666 88.5787C80.8613 88.5998 80.8519 88.6196 80.8388 88.637C80.8257 88.6543 80.8093 88.6689 80.7905 88.6799L69.8751 94.9811C69.8491 94.9955 69.8199 95.0028 69.7902 95.0023Z" fill="#E0E0E0"/>
<path d="M69.7902 96.6148C69.761 96.6154 69.7323 96.6077 69.7073 96.5927C69.6823 96.5777 69.662 96.5559 69.6487 96.53C69.6376 96.5111 69.6303 96.4901 69.6275 96.4683C69.6247 96.4465 69.6263 96.4244 69.6322 96.4032C69.6382 96.3821 69.6483 96.3623 69.6621 96.3452C69.6759 96.3281 69.693 96.314 69.7124 96.3037L80.6207 90.0095C80.6392 89.998 80.6598 89.9904 80.6813 89.9871C80.7028 89.9837 80.7248 89.9847 80.7459 89.99C80.767 89.9952 80.7868 90.0047 80.8042 90.0178C80.8216 90.0308 80.8362 90.0473 80.8471 90.0661C80.8587 90.0851 80.8665 90.1062 80.8699 90.1283C80.8734 90.1503 80.8724 90.1728 80.8672 90.1945C80.8619 90.2162 80.8524 90.2366 80.8393 90.2546C80.8261 90.2726 80.8095 90.2878 80.7905 90.2994L69.8751 96.5936C69.8491 96.608 69.8199 96.6153 69.7902 96.6148Z" fill="#E0E0E0"/>
<path d="M69.7902 98.1637C69.761 98.1642 69.7323 98.1566 69.7073 98.1416C69.6823 98.1265 69.662 98.1048 69.6487 98.0788C69.6365 98.0602 69.6283 98.0392 69.6249 98.0171C69.6215 97.9951 69.6229 97.9726 69.6289 97.9512C69.6349 97.9297 69.6455 97.9098 69.6599 97.8928C69.6743 97.8757 69.6922 97.862 69.7124 97.8525L80.6207 91.5513C80.6594 91.5306 80.7045 91.5257 80.7467 91.5376C80.7889 91.5495 80.8249 91.5772 80.8471 91.6149C80.8585 91.6334 80.8662 91.654 80.8695 91.6755C80.8729 91.697 80.8719 91.7189 80.8666 91.74C80.8613 91.7611 80.8519 91.781 80.8388 91.7983C80.8257 91.8157 80.8093 91.8303 80.7905 91.8412L69.8751 98.1425C69.8491 98.1568 69.8199 98.1642 69.7902 98.1637Z" fill="#E0E0E0"/>
<path d="M18.4603 137.301C18.431 137.301 18.4021 137.294 18.3762 137.28C18.3503 137.267 18.3281 137.247 18.3117 137.223C18.3004 137.203 18.2931 137.182 18.2901 137.16C18.2872 137.137 18.2888 137.115 18.2947 137.093C18.3006 137.071 18.3108 137.051 18.3247 137.033C18.3385 137.015 18.3558 137 18.3754 136.989L29.2837 130.695C29.3027 130.684 29.3239 130.676 29.3459 130.672C29.368 130.669 29.3905 130.67 29.4122 130.675C29.4338 130.68 29.4543 130.69 29.4723 130.703C29.4903 130.716 29.5055 130.733 29.5171 130.752C29.5382 130.792 29.5433 130.838 29.5315 130.881C29.5197 130.924 29.4918 130.962 29.4535 130.985L18.5805 137.279C18.5439 137.299 18.5016 137.307 18.4603 137.301Z" fill="#455A64"/>
<path d="M18.4603 138.885C18.4302 138.885 18.4006 138.877 18.3745 138.862C18.3484 138.848 18.3268 138.826 18.3117 138.8C18.3006 138.781 18.2933 138.76 18.2905 138.738C18.2876 138.716 18.2893 138.694 18.2952 138.673C18.3012 138.652 18.3113 138.632 18.3251 138.615C18.3389 138.598 18.356 138.584 18.3754 138.574L29.2837 132.272C29.3234 132.251 29.3697 132.246 29.413 132.258C29.4564 132.27 29.4936 132.298 29.5171 132.336C29.5378 132.375 29.5427 132.42 29.5309 132.462C29.519 132.504 29.4913 132.54 29.4535 132.562L18.5805 138.864L18.4603 138.885Z" fill="#E0E0E0"/>
<path d="M18.4603 140.462C18.4305 140.461 18.4014 140.453 18.3755 140.438C18.3497 140.423 18.3278 140.402 18.3117 140.377C18.3004 140.358 18.2931 140.336 18.2901 140.314C18.2872 140.291 18.2888 140.269 18.2947 140.247C18.3006 140.225 18.3108 140.205 18.3247 140.187C18.3385 140.169 18.3558 140.155 18.3754 140.144L29.2837 133.849C29.3032 133.838 29.3247 133.831 29.347 133.828C29.3693 133.825 29.392 133.826 29.4138 133.832C29.4355 133.838 29.4558 133.849 29.4736 133.862C29.4913 133.876 29.5061 133.893 29.5172 133.913C29.5378 133.952 29.5427 133.997 29.5309 134.039C29.519 134.081 29.4913 134.117 29.4535 134.139L18.5805 140.462C18.5415 140.475 18.4993 140.475 18.4603 140.462Z" fill="#E0E0E0"/>
<path d="M18.4603 142.046C18.4246 142.044 18.3903 142.031 18.3625 142.009C18.3346 141.986 18.3145 141.956 18.3051 141.921C18.2957 141.887 18.2974 141.85 18.3101 141.817C18.3227 141.783 18.3455 141.754 18.3754 141.735L29.2837 135.441C29.3027 135.429 29.3239 135.421 29.3459 135.418C29.368 135.414 29.3905 135.415 29.4122 135.421C29.4338 135.426 29.4543 135.435 29.4723 135.448C29.4903 135.462 29.5055 135.478 29.5172 135.497C29.5382 135.537 29.5433 135.583 29.5315 135.626C29.5197 135.67 29.4918 135.707 29.4535 135.731L18.5805 142.025L18.4603 142.046Z" fill="#E0E0E0"/>
</svg>
