<svg width="136" height="187" viewBox="0 0 136 187" fill="none" xmlns="http://www.w3.org/2000/svg">
<path d="M80.4541 185.007L102.143 172.475C104.379 171.181 105.497 169.49 105.497 167.8C105.497 166.11 105.497 164.78 105.497 164.78L85.0806 153.203C84.4529 152.792 83.9307 152.24 83.5559 151.59C83.1811 150.94 82.9643 150.211 82.9229 149.462V122.73L45.0551 144.618V171.35C45.0914 172.095 45.3023 172.822 45.671 173.47C46.0396 174.119 46.5556 174.672 47.1774 175.084L64.226 184.985C68.7322 187.588 75.9832 187.588 80.4541 185.007Z" fill="#37474F"/>
<path d="M54.1454 176.082V179.087L47.2057 175.084C46.5781 174.673 46.0558 174.121 45.681 173.471C45.3063 172.821 45.0894 172.092 45.0481 171.343V144.618L52.2637 140.452C52.4193 142.284 52.575 144.179 52.7306 146.025L47.6655 148.953V169.837C47.6996 170.583 47.9096 171.311 48.2783 171.962C48.6471 172.612 49.1643 173.166 49.7878 173.578L54.1454 176.082Z" fill="#263238"/>
<path d="M47.6655 169.844C47.7029 170.59 47.9142 171.317 48.2827 171.966C48.6512 172.616 49.1666 173.17 49.7877 173.585L64.2189 181.994C68.6969 184.575 75.9478 184.575 80.4187 181.994L102.115 169.462C106.593 166.881 106.593 162.694 102.115 160.113L87.6697 151.697C87.0405 151.288 86.517 150.735 86.142 150.085C85.7671 149.435 85.5512 148.705 85.5121 147.956V127.079L47.6655 148.953V169.844Z" fill="#455A64"/>
<path opacity="0.15" d="M92.1051 154.236L87.7121 151.697C87.0829 151.288 86.5594 150.735 86.1845 150.085C85.8095 149.435 85.5936 148.705 85.5545 147.956V127.079L47.6655 148.953V169.844C47.7029 170.59 47.9142 171.317 48.2827 171.966C48.6512 172.616 49.1666 173.17 49.7877 173.585L54.11 176.074L92.1051 154.236Z" fill="#103E13"/>
<path d="M2.53245 186.329C3.35153 186.724 4.25225 186.922 5.1617 186.904C6.07115 186.887 6.96377 186.656 7.7673 186.23C26.3935 175.48 113.787 125.035 132.413 114.293C133.198 113.779 133.85 113.088 134.318 112.276C134.786 111.464 135.057 110.554 135.109 109.618V5.26912C135.146 4.34493 134.93 3.42812 134.483 2.61818C134.036 1.80825 133.376 1.13613 132.574 0.674799C131.772 0.213464 130.859 -0.0194721 129.934 0.00127422C129.009 0.0220205 128.108 0.295657 127.327 0.792483L2.70223 72.7299C1.92338 73.2467 1.27647 73.9387 0.813341 74.7505C0.35021 75.5623 0.0837368 76.4712 0.0352783 77.4045V181.753C0.0654662 182.658 0.307035 183.543 0.740655 184.337C1.17428 185.132 1.78791 185.814 2.53245 186.329Z" fill="#37474F"/>
<path d="M7.76736 186.23L132.414 114.286C133.199 113.773 133.852 113.083 134.32 112.27C134.789 111.458 135.059 110.547 135.109 109.611V5.26913C135.109 3.54354 133.899 2.85047 132.414 3.71327L7.76736 75.6507C6.98209 76.1631 6.32878 76.8535 5.86048 77.6657C5.39217 78.478 5.12207 79.3891 5.07211 80.3253V184.674C5.06504 186.393 6.27472 187.086 7.76736 186.23Z" fill="#455A64"/>
<path d="M8.63751 172.086V81.5629C8.66886 80.9881 8.83502 80.4287 9.12258 79.9299C9.41014 79.4311 9.81103 79.0069 10.2929 78.6917L129.881 9.66799C130.794 9.13758 131.536 9.56898 131.536 10.6227V101.146C131.505 101.722 131.339 102.283 131.05 102.784C130.761 103.284 130.358 103.709 129.874 104.024L10.2929 173.048C9.3803 173.571 8.63751 173.147 8.63751 172.086Z" fill="#4CAF4F"/>
<path opacity="0.75" d="M8.63751 172.086V81.5629C8.66886 80.9881 8.83502 80.4287 9.12258 79.9299C9.41014 79.4311 9.81103 79.0069 10.2929 78.6917L129.881 9.66799C130.794 9.13758 131.536 9.56898 131.536 10.6227V101.146C131.505 101.722 131.339 102.283 131.05 102.784C130.761 103.284 130.358 103.709 129.874 104.024L10.2929 173.048C9.3803 173.571 8.63751 173.147 8.63751 172.086Z" fill="white"/>
<path d="M0.799376 74.7455L5.86446 77.6663C5.38144 78.4752 5.10677 79.3913 5.06508 80.3324V184.674C5.06508 186.244 6.13327 187.121 7.7674 186.23C6.96546 186.661 6.07231 186.895 5.16194 186.912C4.25157 186.929 3.35021 186.729 2.53254 186.329C1.7918 185.887 1.17256 185.268 0.730508 184.527C0.288452 183.786 0.037428 182.947 0 182.086V77.4187C0.0357122 76.4744 0.31077 75.5545 0.799376 74.7455Z" fill="#263238"/>
<path d="M64.5797 146.244L75.5941 139.879C76.1459 139.568 76.5845 139.787 76.5845 140.382C76.5598 140.713 76.4572 141.035 76.2852 141.32C76.1131 141.605 75.8764 141.846 75.5941 142.022L64.5797 148.387C64.035 148.705 63.5893 148.479 63.5893 147.892C63.613 147.559 63.715 147.236 63.8871 146.95C64.0592 146.663 64.2965 146.422 64.5797 146.244Z" fill="#4CAF4F"/>
</svg>
