<svg width="20" height="26" viewBox="0 0 20 26" fill="none" xmlns="http://www.w3.org/2000/svg">
<path d="M16.6968 0.118613L4.30996 7.27557C4.18194 7.36113 4.07565 7.47535 3.99952 7.60916C3.92338 7.74298 3.8795 7.8927 3.87137 8.04643V23.1807C3.87907 23.3334 3.92364 23.482 4.00125 23.6138C4.07885 23.7456 4.1872 23.8566 4.31704 23.9374L6.07143 24.9417C6.21014 25.0097 6.36258 25.0451 6.51709 25.0451C6.6716 25.0451 6.82405 25.0097 6.96276 24.9417L19.3496 17.7776C19.4774 17.6936 19.5838 17.5807 19.6599 17.448C19.7361 17.3153 19.7801 17.1666 19.7882 17.0138V1.87956C19.7798 1.72603 19.7351 1.57669 19.6576 1.44388C19.5801 1.31107 19.4721 1.1986 19.3425 1.11578L17.6235 0.111539C17.4801 0.0370774 17.3208 -0.00120381 17.1592 2.88531e-05C16.9977 0.00126152 16.839 0.0419721 16.6968 0.118613Z" fill="#333333"/>
<path d="M6.96276 24.9346C6.82362 25.0012 6.67133 25.0357 6.51709 25.0357C6.36285 25.0357 6.21058 25.0012 6.07144 24.9346L4.31704 23.9304C4.1872 23.8496 4.07885 23.7385 4.00125 23.6068C3.92364 23.475 3.87907 23.3264 3.87137 23.1737V8.03941C3.87813 7.87876 3.92692 7.7227 4.01286 7.58679L6.6515 9.10022C6.56661 9.24166 6.51709 9.39725 6.51709 9.1568V24.2911C6.51709 24.9346 6.70102 25.0832 6.96276 24.9346Z" fill="#333333"/>
<path opacity="0.4" d="M19.781 1.83013C19.7456 1.60382 19.5688 1.52603 19.3495 1.65333L6.96269 8.81736C6.83357 8.89834 6.72661 9.01013 6.65143 9.14268L4.00571 7.62925C4.08314 7.5003 4.18975 7.3913 4.31697 7.31101L16.7038 0.146972C16.8408 0.0774019 16.9923 0.0411377 17.1459 0.0411377C17.2996 0.0411377 17.4511 0.0774019 17.588 0.146972L19.3424 1.14414C19.4616 1.21909 19.5627 1.31946 19.6385 1.43805C19.7144 1.55665 19.763 1.69053 19.781 1.83013Z" fill="white"/>
<path d="M2.6617 19.2699C2.37873 19.1002 0.263564 17.9121 0.199897 17.8555C0.14759 17.8243 0.102903 17.7818 0.0690712 17.7311C0.0352391 17.6805 0.0131119 17.6229 0.0043058 17.5627C-0.00450033 17.5024 0.000240595 17.4409 0.0181656 17.3827C0.0360906 17.3245 0.0667451 17.271 0.107931 17.2261L3.87136 12.9121L6.51708 14.4326L2.58387 18.6334C2.54194 18.678 2.51033 18.7313 2.49128 18.7894C2.47223 18.8476 2.46621 18.9092 2.47364 18.9699C2.48106 19.0306 2.50176 19.089 2.53426 19.1409C2.56676 19.1927 2.61026 19.2368 2.6617 19.2699Z" fill="#37474F"/>
<path opacity="0.4" d="M2.6617 19.2699C2.37873 19.1002 0.263564 17.9121 0.199897 17.8555C0.14759 17.8243 0.102903 17.7818 0.0690712 17.7311C0.0352391 17.6805 0.0131119 17.6229 0.0043058 17.5627C-0.00450033 17.5024 0.000240595 17.4409 0.0181656 17.3827C0.0360906 17.3245 0.0667451 17.271 0.107931 17.2261L3.87136 12.9121L6.51708 14.4326L2.58387 18.6334C2.54194 18.678 2.51033 18.7313 2.49128 18.7894C2.47223 18.8476 2.46621 18.9092 2.47364 18.9699C2.48106 19.0306 2.50176 19.089 2.53426 19.1409C2.56676 19.1927 2.61026 19.2368 2.6617 19.2699Z" fill="white"/>
<path d="M19.3495 1.61795L6.96272 8.78198C6.83314 8.86481 6.72515 8.97727 6.64765 9.11008C6.57016 9.24289 6.52538 9.39224 6.51704 9.54577V14.4467L2.58383 18.6476C2.51843 18.699 2.47089 18.7697 2.44795 18.8496C2.425 18.9296 2.42782 19.0147 2.456 19.093C2.48418 19.1712 2.53631 19.2387 2.60496 19.2856C2.67362 19.3326 2.75533 19.3568 2.83851 19.3548L6.51704 19.086V24.7083C6.51704 24.9912 6.71512 25.1044 6.96272 24.9629L19.3495 17.7989C19.4774 17.7149 19.5837 17.602 19.6599 17.4693C19.7361 17.3366 19.78 17.1879 19.7881 17.0351V1.90083C19.7881 1.58966 19.5901 1.4765 19.3495 1.61795Z" fill="#37474F"/>
<path d="M16.9161 15.0478L14.3765 13.1454L16.9939 8.13832C17.1112 7.91512 17.135 7.6545 17.06 7.41378C16.985 7.17306 16.8175 6.97197 16.5942 6.85474C16.371 6.73751 16.1103 6.71375 15.8695 6.78869C15.6287 6.86362 15.4275 7.03111 15.3103 7.25431L12.8343 11.9855L10.5706 10.2741C10.4712 10.1989 10.3579 10.144 10.2373 10.1125C10.1167 10.081 9.99103 10.0736 9.86754 10.0907C9.74404 10.1077 9.6251 10.149 9.51754 10.212C9.40998 10.275 9.31589 10.3586 9.24065 10.458C9.1654 10.5573 9.11047 10.6706 9.07899 10.7912C9.04751 10.9118 9.04009 11.0374 9.05717 11.1608C9.07424 11.2843 9.1155 11.4032 9.17854 11.5107C9.24158 11.6182 9.32518 11.7123 9.42458 11.7875L11.943 13.6899L9.43166 18.4848C9.31468 18.709 9.29143 18.9704 9.36703 19.2117C9.44262 19.453 9.61087 19.6545 9.83487 19.7719C9.97078 19.841 10.121 19.8774 10.2735 19.878C10.447 19.8783 10.6172 19.8309 10.7656 19.7411C10.9141 19.6514 11.035 19.5226 11.1153 19.3688L13.4781 14.8568L15.7489 16.5683C15.9502 16.7187 16.2027 16.7838 16.4516 16.7494C16.7006 16.715 16.9259 16.5838 17.0788 16.3844C17.2339 16.1853 17.3038 15.933 17.2733 15.6825C17.2428 15.4321 17.1144 15.2039 16.9161 15.0478Z" fill="#F5F7FA"/>
</svg>
