<svg width="67" height="40" viewBox="0 0 67 40" fill="none" xmlns="http://www.w3.org/2000/svg">
<path d="M29.0676 39.9645C28.4431 39.9576 27.8399 39.7369 27.3584 39.3393C26.877 38.9416 26.5464 38.391 26.4219 37.7792L25.8064 34.5402C24.4172 34.2865 23.0446 33.9488 21.6964 33.5288H21.5902L15.8885 36.1738C15.42 36.3763 14.9115 36.4695 14.4016 36.4462C13.8917 36.4229 13.3938 36.2838 12.9457 36.0394L7.28636 32.758C6.94485 32.5746 6.65655 32.3061 6.44941 31.9785C6.24227 31.6509 6.12332 31.2754 6.1041 30.8883C6.08489 30.5012 6.16605 30.1158 6.33973 29.7693C6.5134 29.4228 6.77369 29.1271 7.09535 28.9107L10.5334 26.4355C10.2212 26.02 9.93536 25.5854 9.67741 25.1342L2.4335 24.6816C1.77597 24.6404 1.15872 24.3507 0.706852 23.8714C0.254984 23.3921 0.00229554 22.759 0 22.1003V17.8571C0.000384969 17.1983 0.251289 16.5644 0.701854 16.0838C1.15242 15.6031 1.76893 15.3117 2.42643 15.2687L9.67034 14.809C9.92835 14.3601 10.2142 13.9279 10.5263 13.5148L7.07413 11.0608C6.75247 10.8445 6.49218 10.5487 6.31851 10.2022C6.14483 9.85576 6.06367 9.47031 6.08288 9.08323C6.1021 8.69616 6.22105 8.32061 6.42819 7.99302C6.63532 7.66544 6.92363 7.39693 7.26513 7.21353L12.9244 3.93209C13.417 3.65699 13.9731 3.51556 14.5373 3.52189C14.9955 3.5153 15.4495 3.60947 15.8673 3.79772L21.5761 6.44268H21.6468C23.0115 6.01954 24.4006 5.67945 25.8064 5.42429L26.4219 2.18528C26.5452 1.57288 26.8754 1.0215 27.3571 0.623622C27.8388 0.225741 28.4428 0.00556086 29.0676 0H37.4221C38.0466 0.0068689 38.6499 0.227514 39.1313 0.625176C39.6128 1.02284 39.9433 1.57348 40.0679 2.18528L40.6833 5.42429C42.0694 5.67896 43.4394 6.01428 44.7863 6.42854H44.8924L50.6013 3.78356C51.0168 3.5961 51.4683 3.50197 51.9241 3.50776C52.4907 3.50052 53.0493 3.64194 53.5441 3.91793L59.2034 7.1994C59.5437 7.38355 59.8309 7.65208 60.0375 7.97921C60.244 8.30634 60.3629 8.68108 60.3828 9.06741C60.4027 9.45375 60.3229 9.83871 60.151 10.1853C59.9792 10.5319 59.7211 10.8285 59.4015 11.0466L55.9564 13.5219C56.2691 13.936 56.5573 14.3682 56.8194 14.816L64.0633 15.2757C64.7208 15.3188 65.3373 15.6102 65.7879 16.0909C66.2385 16.5715 66.4894 17.2054 66.4898 17.8641V22.1074C66.4877 22.7656 66.2362 23.3986 65.786 23.8789C65.3358 24.3592 64.7202 24.6511 64.0633 24.6958L56.8194 25.1484C56.559 25.5996 56.2708 26.0342 55.9564 26.4497L59.4015 28.9249C59.7211 29.143 59.9792 29.4396 60.151 29.7862C60.3229 30.1328 60.4027 30.5178 60.3828 30.9041C60.3629 31.2904 60.244 31.6652 60.0375 31.9923C59.8309 32.3194 59.5437 32.588 59.2034 32.7721L53.5441 36.0536C53.048 36.3262 52.4903 36.4675 51.9241 36.4638C51.4687 36.466 51.0179 36.372 50.6013 36.188L44.8924 33.543H44.8217C43.4596 33.9685 42.0728 34.3109 40.6692 34.5684L40.0537 37.8004C39.9306 38.4135 39.6007 38.9657 39.1191 39.3648C38.6375 39.7639 38.0335 39.9855 37.408 39.9927L29.0676 39.9645ZM33.2484 16.1456C30.2271 16.0744 27.2382 16.7807 24.5685 18.1965C22.6231 19.321 21.5054 20.7566 21.5054 22.1498C21.5054 23.543 22.6231 24.9787 24.5685 26.1031C27.2643 27.4518 30.2374 28.1539 33.252 28.1539C36.2665 28.1539 39.2396 27.4518 41.9354 26.1031C43.8808 24.9787 44.9915 23.543 44.9915 22.1498C44.9915 20.7566 43.8808 19.321 41.9354 18.1965C39.2628 16.7816 36.2719 16.0754 33.2484 16.1456Z" fill="#E0E0E0"/>
</svg>
