<svg width="62" height="125" viewBox="0 0 62 125" fill="none" xmlns="http://www.w3.org/2000/svg">
<path d="M61.9127 3.0102V89.212C61.8747 89.9308 61.6671 90.6303 61.3069 91.2535C60.9466 91.8767 60.444 92.4058 59.84 92.7976L4.73256 124.622C4.52003 124.753 4.27487 124.822 4.02514 124.82C3.9382 124.83 3.85035 124.83 3.76341 124.82C3.70202 124.806 3.6426 124.785 3.58655 124.756L3.47336 124.7L3.3531 124.615C3.31218 124.586 3.27426 124.553 3.23992 124.516C3.07747 124.362 2.94759 124.177 2.85792 123.971C2.71333 123.641 2.63865 123.285 2.63861 122.925V37.1472C2.67942 36.4291 2.88823 35.7306 3.24822 35.1079C3.60821 34.4851 4.10935 33.9555 4.71134 33.5617L59.8188 1.80087C60.0217 1.65692 60.2571 1.56543 60.504 1.53458C60.7509 1.50373 61.0015 1.53448 61.2336 1.62407C61.2956 1.65414 61.3548 1.68964 61.4105 1.73015C61.5926 1.88608 61.7337 2.08436 61.8213 2.30756C61.9089 2.53075 61.9403 2.77203 61.9127 3.0102Z" fill="#455A64"/>
<path d="M60.7597 2.23236C60.826 2.22935 60.8919 2.24399 60.9507 2.27479H60.9861C60.9861 2.27479 61.2053 2.45866 61.2053 2.982V89.2121C61.1683 89.8064 60.9938 90.384 60.6955 90.8994C60.3972 91.4149 59.9833 91.854 59.4863 92.1824L4.38593 124.007C4.2857 124.069 4.17139 124.106 4.05344 124.113H3.93318H3.89781L3.84123 124.07H3.79877L3.76341 124.035C3.67513 123.944 3.60331 123.839 3.55119 123.724C3.44809 123.485 3.39512 123.227 3.39555 122.967V37.1473C3.4389 36.5545 3.6161 35.9793 3.91384 35.4648C4.21158 34.9503 4.62211 34.51 5.11456 34.177L60.2221 2.41623C60.3914 2.30649 60.5865 2.24309 60.788 2.23236H60.7597ZM60.788 1.52515C60.4626 1.53506 60.1455 1.63017 59.8684 1.80096L4.76086 33.5617C4.15887 33.9556 3.65773 34.4852 3.29774 35.108C2.93775 35.7307 2.72895 36.4292 2.68814 37.1473V122.861C2.68818 123.221 2.76285 123.578 2.90744 123.908C2.99711 124.113 3.12699 124.298 3.28944 124.452C3.32378 124.489 3.3617 124.522 3.40262 124.551L3.52288 124.636L3.63607 124.693C3.69212 124.721 3.75154 124.743 3.81293 124.756C3.89987 124.767 3.98772 124.767 4.07466 124.756C4.30721 124.747 4.53361 124.679 4.73256 124.558L59.84 92.734C60.444 92.3422 60.9466 91.8131 61.3069 91.1899C61.6671 90.5667 61.8747 89.8672 61.9128 89.1484V3.01029C61.9356 2.77667 61.9018 2.54099 61.8144 2.32314C61.727 2.10528 61.5885 1.91163 61.4105 1.75852C61.2228 1.61892 60.9935 1.54667 60.7597 1.55343L60.788 1.52515Z" fill="#455A64"/>
<g opacity="0.8">
<path opacity="0.8" d="M61.9127 3.0102V89.212C61.8747 89.9308 61.6671 90.6303 61.3069 91.2535C60.9466 91.8767 60.444 92.4058 59.84 92.7976L4.73256 124.622C4.52003 124.753 4.27487 124.822 4.02514 124.82C3.9382 124.83 3.85035 124.83 3.76341 124.82C3.70202 124.806 3.6426 124.785 3.58655 124.756L3.47336 124.7L3.3531 124.615C3.31218 124.586 3.27426 124.553 3.23992 124.516C3.07747 124.362 2.94759 124.177 2.85792 123.971C2.71333 123.641 2.63865 123.285 2.63861 122.925V37.1472C2.67942 36.4291 2.88823 35.7306 3.24822 35.1079C3.60821 34.4851 4.10935 33.9555 4.71134 33.5617L59.8188 1.80087C60.0217 1.65692 60.2571 1.56543 60.504 1.53458C60.7509 1.50373 61.0015 1.53448 61.2336 1.62407C61.2956 1.65414 61.3548 1.68964 61.4105 1.73015C61.5926 1.88608 61.7337 2.08436 61.8213 2.30756C61.9089 2.53075 61.9403 2.77203 61.9127 3.0102Z" fill="#455A64"/>
</g>
<path d="M61.2337 1.59586C61.0016 1.50626 60.7509 1.47552 60.504 1.50637C60.2572 1.53722 60.0218 1.62871 59.8189 1.77266L4.71137 33.5335C4.10938 33.9273 3.60824 34.4569 3.24825 35.0797C2.88826 35.7024 2.67946 36.4009 2.63865 37.119V43.887L0 42.3382V35.6197C0.037773 34.9027 0.244596 34.2048 0.603583 33.5829C0.96257 32.961 1.46355 32.4327 2.06564 32.0412L57.1802 0.280448C57.3936 0.121427 57.6475 0.0257927 57.9127 0.00452632C58.178 -0.0167401 58.4439 0.0372255 58.6799 0.160224C59.0761 0.407747 60.7951 1.39784 61.2337 1.59586Z" fill="#4CAF4F"/>
<path d="M61.9127 3.01025C61.9127 1.70191 60.979 1.17857 59.84 1.83628L4.73255 33.5971C4.13163 33.9898 3.63154 34.5183 3.27271 35.14C2.91387 35.7616 2.70635 36.4589 2.6669 37.1756V43.9436L61.9127 9.77825V3.01025Z" fill="#4CAF4F"/>
<g opacity="0.4">
<path opacity="0.4" d="M59.84 1.80094L4.73253 33.5617C4.126 33.9464 3.6251 34.4763 3.27526 35.1035L0.650757 33.5759C0.985799 32.9611 1.47292 32.4425 2.06558 32.0695L57.1731 0.308731C57.3889 0.152465 57.6432 0.0580273 57.9088 0.0355955C58.1743 0.0131636 58.4409 0.0635877 58.6799 0.181433C59.0477 0.414812 60.7667 1.39076 61.2053 1.59585C60.978 1.51761 60.7352 1.4954 60.4975 1.5311C60.2598 1.56681 60.0343 1.65938 59.84 1.80094Z" fill="white"/>
</g>
<path opacity="0.15" d="M0.0140686 42.3736V35.6481C0.0432616 34.9139 0.26264 34.1999 0.650737 33.5759L3.28232 35.0964C2.90224 35.7175 2.69016 36.4267 2.66687 37.1544V43.9153L0.0140686 42.3736Z" fill="#103E13"/>
<path d="M49.4411 10.6907C49.0687 10.9852 48.7695 11.362 48.567 11.7914C48.3645 12.2208 48.2642 12.6913 48.2739 13.1659C48.2739 14.156 48.7973 14.6652 49.4411 14.2904C49.8123 13.9947 50.1106 13.6178 50.3129 13.1886C50.5153 12.7594 50.6164 12.2895 50.6083 11.8151C50.6083 10.7897 50.0848 10.3158 49.4411 10.6907Z" fill="#455A64"/>
<path d="M53.6502 8.25066C53.279 8.54632 52.9807 8.92327 52.7783 9.35243C52.576 9.7816 52.4749 10.2515 52.483 10.7259C52.483 11.7231 53.0064 12.2252 53.6502 11.8574C54.0235 11.5632 54.3237 11.1867 54.5274 10.7573C54.7311 10.328 54.8328 9.85734 54.8245 9.3822C54.8245 8.38503 54.301 7.88291 53.6502 8.25066Z" fill="#455A64"/>
<path d="M57.8593 5.8391C57.4881 6.13476 57.1898 6.51171 56.9875 6.94087C56.7851 7.37004 56.684 7.83994 56.6921 8.31433C56.6921 9.3115 57.2156 9.81361 57.8593 9.43879C58.2339 9.14569 58.535 8.76941 58.7388 8.33978C58.9426 7.91015 59.0436 7.43896 59.0336 6.96356C59.0336 5.95225 58.5101 5.44306 57.8593 5.8391Z" fill="#455A64"/>
<path d="M3.42381 124.601L3.16207 124.452C2.95601 124.322 2.74352 124.201 2.5254 124.092L2.17877 123.894L1.64114 123.582L1.18131 123.321L0.926645 123.179C0.789507 123.112 0.66878 123.015 0.572939 122.896C0.455605 122.772 0.359967 122.628 0.289978 122.472C0.133374 122.131 0.0536816 121.759 0.0565313 121.383V42.3665L2.69517 43.9152V122.861C2.70801 123.22 2.78218 123.574 2.91447 123.908C3.00414 124.113 3.13404 124.298 3.29648 124.452C3.32554 124.494 3.36441 124.528 3.40967 124.551L3.42381 124.601Z" fill="#37474F"/>
<path d="M7.84521 46.7866C7.8485 46.6874 7.87516 46.5905 7.92303 46.5037L9.0266 44.2123C9.03798 44.1876 9.05493 44.1658 9.07612 44.1487C9.08206 44.1424 9.0892 44.1375 9.0971 44.1341C9.10501 44.1308 9.11351 44.129 9.1221 44.129C9.1307 44.129 9.1392 44.1308 9.1471 44.1341C9.15501 44.1375 9.16214 44.1424 9.16809 44.1487C9.19325 44.1781 9.20593 44.2161 9.20345 44.2547V45.0256C9.2121 45.1055 9.2121 45.1861 9.20345 45.266C9.20345 45.3226 9.161 45.3933 9.12563 45.4711L8.53849 46.6805L9.12563 47.218C9.15799 47.2535 9.18428 47.2941 9.20345 47.3382C9.21361 47.4085 9.21361 47.48 9.20345 47.5503V48.2717C9.20178 48.3254 9.18978 48.3782 9.16809 48.4273C9.1471 48.47 9.11541 48.5065 9.07612 48.5334C9.07612 48.5334 9.07612 48.5334 9.0266 48.5334L7.93718 47.5645C7.90954 47.5415 7.88799 47.512 7.87442 47.4787C7.86085 47.4454 7.85568 47.4093 7.85937 47.3735L7.84521 46.7866Z" fill="#4CAF4F"/>
<path d="M11.8916 41.051C11.909 40.9729 11.9351 40.897 11.9694 40.8247C12.0063 40.7537 12.0627 40.6948 12.1321 40.655L12.5495 40.4146C12.5495 40.4146 12.6132 40.4146 12.6344 40.4146C12.6484 40.428 12.659 40.4448 12.6652 40.4632C12.6713 40.4817 12.6729 40.5014 12.6698 40.5206C12.6732 40.5488 12.6732 40.5773 12.6698 40.6055L10.7668 48.6889C10.7493 48.7647 10.7232 48.8382 10.689 48.9081C10.6542 48.9865 10.5945 49.0511 10.5192 49.092L10.1231 49.3254C10.1108 49.3346 10.0959 49.3395 10.0806 49.3395C10.0653 49.3395 10.0504 49.3346 10.0382 49.3254C10.0236 49.3106 10.0122 49.2928 10.0049 49.2733C9.99762 49.2538 9.99449 49.233 9.99574 49.2122C9.99344 49.184 9.99344 49.1556 9.99574 49.1274L11.8916 41.051Z" fill="#4CAF4F"/>
<path d="M14.8203 43.3212C14.8171 43.4226 14.7904 43.5218 14.7425 43.6112L13.6389 45.8955L13.5894 45.9662C13.5757 45.975 13.5597 45.9797 13.5434 45.9797C13.5271 45.9797 13.5111 45.975 13.4974 45.9662C13.4839 45.9297 13.4839 45.8895 13.4974 45.853V45.0822C13.4884 45.0047 13.4884 44.9263 13.4974 44.8488C13.5189 44.7756 13.5473 44.7045 13.5823 44.6367L14.1624 43.4273L13.5823 42.8969C13.5471 42.8622 13.5184 42.8215 13.4974 42.7767C13.4873 42.7063 13.4873 42.6349 13.4974 42.5645V41.7937C13.4883 41.7422 13.4883 41.6896 13.4974 41.6381C13.5184 41.5954 13.5501 41.5589 13.5894 41.532C13.5966 41.5268 13.6053 41.524 13.6142 41.524C13.623 41.524 13.6317 41.5268 13.6389 41.532L14.7425 42.5433C14.7702 42.5678 14.7917 42.5985 14.8053 42.6329C14.8188 42.6674 14.8239 42.7045 14.8203 42.7413V43.3212Z" fill="#4CAF4F"/>
<path d="M17.8904 42.7979C17.9066 42.7853 17.9265 42.7784 17.947 42.7784C17.9675 42.7784 17.9875 42.7853 18.0036 42.7979C18.0355 42.8378 18.0507 42.8885 18.0461 42.9394V43.7809C18.0456 43.8469 18.0311 43.9119 18.0036 43.9719C17.9773 44.0251 17.9385 44.0713 17.8904 44.1062L17.374 44.4033C17.3596 44.4167 17.3407 44.4242 17.321 44.4242C17.3013 44.4242 17.2823 44.4167 17.2679 44.4033C17.2495 44.3865 17.2354 44.3655 17.2268 44.3421C17.2181 44.3187 17.2153 44.2936 17.2184 44.2689V43.4203C17.2179 43.3534 17.235 43.2875 17.2679 43.2293C17.2876 43.176 17.3251 43.131 17.374 43.102L17.8904 42.7979Z" fill="#4CAF4F"/>
<path d="M19.6378 41.7936C19.6528 41.7816 19.6715 41.775 19.6908 41.775C19.7101 41.775 19.7288 41.7816 19.7439 41.7936C19.7757 41.8336 19.791 41.8842 19.7863 41.9351V42.7767C19.7858 42.8426 19.7714 42.9077 19.7439 42.9676C19.7242 43.021 19.6867 43.0659 19.6378 43.0949L19.1143 43.399C19.0992 43.4111 19.0805 43.4176 19.0612 43.4176C19.0419 43.4176 19.0232 43.4111 19.0082 43.399C18.9763 43.3591 18.9611 43.3084 18.9657 43.2576V42.416C18.9662 42.3501 18.9807 42.285 19.0082 42.225C19.0296 42.1708 19.0665 42.1241 19.1143 42.0907L19.6378 41.7936Z" fill="#4CAF4F"/>
<path d="M21.378 40.7894C21.3936 40.7755 21.4137 40.7678 21.4346 40.7678C21.4555 40.7678 21.4757 40.7755 21.4912 40.7894C21.5071 40.8077 21.5191 40.8291 21.5264 40.8522C21.5337 40.8753 21.5362 40.8997 21.5337 40.9238V41.7725C21.5332 41.8384 21.5187 41.9035 21.4912 41.9634C21.4671 42.0162 21.4277 42.0606 21.378 42.0907L20.8616 42.3948C20.8466 42.4069 20.8278 42.4134 20.8086 42.4134C20.7893 42.4134 20.7705 42.4069 20.7555 42.3948C20.737 42.3766 20.7229 42.3544 20.7143 42.3299C20.7057 42.3053 20.7028 42.2792 20.706 42.2534V41.4118C20.7055 41.3449 20.7225 41.279 20.7555 41.2208C20.7769 41.1666 20.8138 41.1199 20.8616 41.0865L21.378 40.7894Z" fill="#4CAF4F"/>
<path d="M8.31213 52.9535L44.0153 32.3595C44.3124 32.1898 44.56 32.31 44.56 32.6353C44.5463 32.8183 44.4898 32.9954 44.3952 33.1526C44.3006 33.3099 44.1705 33.4427 44.0153 33.5405L8.33335 54.1345C8.02916 54.3113 7.78864 54.1911 7.78864 53.8587C7.79945 53.6775 7.85241 53.5013 7.94328 53.3442C8.03416 53.187 8.16045 53.0532 8.31213 52.9535Z" fill="#4CAF4F"/>
<path d="M16.511 62.4159L52.193 41.8219C52.4901 41.6522 52.7377 41.7724 52.7377 42.0977C52.7239 42.2816 52.6675 42.4598 52.573 42.6181C52.4785 42.7765 52.3483 42.9106 52.193 43.01L16.511 63.604C16.2069 63.7737 15.9663 63.6535 15.9663 63.3282C15.9784 63.1438 16.0341 62.965 16.1288 62.8064C16.2235 62.6478 16.3545 62.514 16.511 62.4159Z" fill="#C8E6C9"/>
<path d="M16.511 67.1542L38.8653 54.2547C39.1695 54.0779 39.41 54.1981 39.41 54.5305C39.3968 54.7136 39.3406 54.8909 39.246 55.0482C39.1513 55.2055 39.0209 55.3383 38.8653 55.4357L16.511 68.3352C16.2069 68.5049 15.9663 68.3847 15.9663 68.0594C15.9784 67.876 16.0341 67.6982 16.1289 67.5407C16.2236 67.3833 16.3546 67.2507 16.511 67.1542Z" fill="#C8E6C9"/>
<path d="M16.511 71.8854L38.8653 58.9859C39.1695 58.8091 39.41 58.9364 39.41 59.2617C39.3968 59.4448 39.3406 59.6222 39.246 59.7795C39.1513 59.9368 39.0209 60.0696 38.8653 60.167L16.511 73.0665C16.2069 73.2433 15.9663 73.116 15.9663 72.7907C15.9784 72.6073 16.0341 72.4295 16.1289 72.272C16.2236 72.1145 16.3546 71.982 16.511 71.8854Z" fill="#C8E6C9"/>
<path d="M46.1375 31.1359L56.3172 25.2378C56.6214 25.0681 56.8619 25.1883 56.8619 25.5136C56.8498 25.6979 56.7941 25.8767 56.6994 26.0353C56.6047 26.1939 56.4737 26.3278 56.3172 26.4259L46.1375 32.324C45.8333 32.4938 45.5928 32.3735 45.5928 32.0482C45.6049 31.8639 45.6606 31.6851 45.7553 31.5265C45.85 31.3679 45.981 31.234 46.1375 31.1359Z" fill="#4CAF4F"/>
<path d="M17.1335 99.9758L44.0153 84.4172C44.3124 84.2404 44.56 84.3677 44.56 84.693C44.5452 84.8757 44.4883 85.0524 44.3938 85.2095C44.2993 85.3665 44.1697 85.4996 44.0153 85.5982L17.1335 101.157C16.8294 101.327 16.5888 101.206 16.5888 100.881C16.6031 100.698 16.6598 100.521 16.7543 100.364C16.8489 100.207 16.9787 100.074 17.1335 99.9758Z" fill="#4CAF4F"/>
<path d="M46.1375 83.1866L56.2889 77.2673C56.5931 77.0905 56.8336 77.2178 56.8336 77.5431C56.8215 77.7265 56.7658 77.9043 56.6711 78.0618C56.5763 78.2192 56.4453 78.3518 56.2889 78.4483L46.1375 84.3394C45.8333 84.5162 45.5928 84.3889 45.5928 84.0636C45.6102 83.8854 45.6684 83.7137 45.7629 83.5616C45.8573 83.4096 45.9855 83.2813 46.1375 83.1866Z" fill="#4CAF4F"/>
<path d="M21.6964 83.0593L56.2889 63.116C56.5931 62.9462 56.8336 63.0665 56.8336 63.3918C56.8215 63.5761 56.7658 63.7549 56.6711 63.9135C56.5765 64.0721 56.4454 64.206 56.2889 64.3041L21.6964 84.2474C21.3993 84.4171 21.1517 84.2969 21.1517 83.9645C21.1665 83.7819 21.2234 83.6051 21.3179 83.4481C21.4124 83.291 21.5419 83.158 21.6964 83.0593Z" fill="#4CAF4F"/>
<path d="M13.0164 92.9673L56.2889 67.8472C56.5931 67.6774 56.8336 67.7977 56.8336 68.123C56.8215 68.3073 56.7658 68.4861 56.6711 68.6447C56.5764 68.8033 56.4454 68.9372 56.2889 69.0353L13.0164 94.1483C12.7193 94.3251 12.4717 94.1978 12.4717 93.8725C12.4854 93.6896 12.5419 93.5124 12.6365 93.3552C12.731 93.198 12.8612 93.0651 13.0164 92.9673Z" fill="#4CAF4F"/>
<path d="M15.0538 96.4397L44.0152 79.6788C44.3124 79.5091 44.56 79.6293 44.56 79.9547C44.5462 80.1386 44.4898 80.3167 44.3953 80.4751C44.3007 80.6334 44.1706 80.7676 44.0152 80.867L15.075 97.6278C14.7708 97.7976 14.5303 97.6773 14.5303 97.352C14.54 97.1696 14.5924 96.992 14.6834 96.8336C14.7743 96.6751 14.9012 96.5402 15.0538 96.4397Z" fill="#E8F5E9"/>
<path d="M13.0164 88.0592L18.7394 84.7566C19.0365 84.5798 19.2841 84.7071 19.2841 85.0324C19.2704 85.2153 19.2139 85.3925 19.1194 85.5497C19.0248 85.7069 18.8946 85.8397 18.7394 85.9376L13.0164 89.2403C12.7193 89.4171 12.4717 89.2898 12.4717 88.9644C12.4838 88.7811 12.5395 88.6033 12.6342 88.4458C12.729 88.2883 12.86 88.1558 13.0164 88.0592Z" fill="#4CAF4F"/>
<path d="M8.31211 57.6989L33.3404 43.2435C33.6446 43.0667 33.8922 43.194 33.8922 43.5193C33.8788 43.7032 33.8217 43.8812 33.7258 44.0386C33.6298 44.1961 33.4977 44.3283 33.3404 44.4245L8.31211 58.8799C8.00792 59.0567 7.7674 58.9294 7.7674 58.6041C7.77944 58.4207 7.83517 58.2429 7.92992 58.0854C8.02468 57.928 8.15571 57.7954 8.31211 57.6989Z" fill="#4CAF4F"/>
<path opacity="0.6" d="M8.31211 57.6989L33.3404 43.2435C33.6446 43.0667 33.8922 43.194 33.8922 43.5193C33.8788 43.7032 33.8217 43.8812 33.7258 44.0386C33.6298 44.1961 33.4977 44.3283 33.3404 44.4245L8.31211 58.8799C8.00792 59.0567 7.7674 58.9294 7.7674 58.6041C7.77944 58.4207 7.83517 58.2429 7.92992 58.0854C8.02468 57.928 8.15571 57.7954 8.31211 57.6989Z" fill="white"/>
<path d="M8.31211 62.4158L13.3701 59.495C13.6672 59.3182 13.9148 59.4384 13.9148 59.7708C13.9 59.9535 13.8431 60.1303 13.7486 60.2873C13.6541 60.4443 13.5246 60.5774 13.3701 60.6761L8.31211 63.5968C8.00792 63.7736 7.7674 63.6463 7.7674 63.321C7.77944 63.1377 7.83517 62.9598 7.92992 62.8024C8.02468 62.6449 8.15571 62.5124 8.31211 62.4158Z" fill="#4CAF4F"/>
<path opacity="0.6" d="M8.31211 62.4158L13.3701 59.495C13.6672 59.3182 13.9148 59.4384 13.9148 59.7708C13.9 59.9535 13.8431 60.1303 13.7486 60.2873C13.6541 60.4443 13.5246 60.5774 13.3701 60.6761L8.31211 63.5968C8.00792 63.7736 7.7674 63.6463 7.7674 63.321C7.77944 63.1377 7.83517 62.9598 7.92992 62.8024C8.02468 62.6449 8.15571 62.5124 8.31211 62.4158Z" fill="white"/>
<path d="M8.31211 67.1543L13.3701 64.2335C13.6672 64.0567 13.9148 64.184 13.9148 64.5093C13.9 64.692 13.8431 64.8687 13.7486 65.0258C13.6541 65.1828 13.5246 65.3159 13.3701 65.4145L8.31211 68.3353C8.00792 68.5121 7.7674 68.3848 7.7674 68.0595C7.77944 67.8761 7.83517 67.6983 7.92992 67.5408C8.02468 67.3834 8.15571 67.2508 8.31211 67.1543Z" fill="#4CAF4F"/>
<path opacity="0.6" d="M8.31211 67.1543L13.3701 64.2335C13.6672 64.0567 13.9148 64.184 13.9148 64.5093C13.9 64.692 13.8431 64.8687 13.7486 65.0258C13.6541 65.1828 13.5246 65.3159 13.3701 65.4145L8.31211 68.3353C8.00792 68.5121 7.7674 68.3848 7.7674 68.0595C7.77944 67.8761 7.83517 67.6983 7.92992 67.5408C8.02468 67.3834 8.15571 67.2508 8.31211 67.1543Z" fill="white"/>
<path d="M8.31211 71.8853L13.3701 68.9646C13.6672 68.7878 13.9148 68.9151 13.9148 69.2404C13.9 69.423 13.8431 69.5998 13.7486 69.7568C13.6541 69.9139 13.5246 70.0469 13.3701 70.1456L8.31211 73.0664C8.00792 73.2432 7.7674 73.1159 7.7674 72.7906C7.78057 72.6075 7.83677 72.4301 7.93141 72.2728C8.02606 72.1155 8.15649 71.9828 8.31211 71.8853Z" fill="#4CAF4F"/>
<path opacity="0.6" d="M8.31211 71.8853L13.3701 68.9646C13.6672 68.7878 13.9148 68.9151 13.9148 69.2404C13.9 69.423 13.8431 69.5998 13.7486 69.7568C13.6541 69.9139 13.5246 70.0469 13.3701 70.1456L8.31211 73.0664C8.00792 73.2432 7.7674 73.1159 7.7674 72.7906C7.78057 72.6075 7.83677 72.4301 7.93141 72.2728C8.02606 72.1155 8.15649 71.9828 8.31211 71.8853Z" fill="white"/>
<path d="M8.31211 76.6167L13.3701 73.6959C13.6672 73.5191 13.9148 73.6464 13.9148 73.9717C13.9 74.1544 13.8431 74.3311 13.7486 74.4882C13.6541 74.6452 13.5246 74.7783 13.3701 74.8769L8.31211 77.7977C8.00792 77.9745 7.7674 77.8472 7.7674 77.5219C7.78057 77.3388 7.83677 77.1614 7.93141 77.0041C8.02606 76.8468 8.15649 76.7141 8.31211 76.6167Z" fill="#4CAF4F"/>
<path opacity="0.6" d="M8.31211 76.6167L13.3701 73.6959C13.6672 73.5191 13.9148 73.6464 13.9148 73.9717C13.9 74.1544 13.8431 74.3311 13.7486 74.4882C13.6541 74.6452 13.5246 74.7783 13.3701 74.8769L8.31211 77.7977C8.00792 77.9745 7.7674 77.8472 7.7674 77.5219C7.78057 77.3388 7.83677 77.1614 7.93141 77.0041C8.02606 76.8468 8.15649 76.7141 8.31211 76.6167Z" fill="white"/>
<path d="M16.511 105.174L38.8653 92.2743C39.1695 92.0975 39.41 92.2248 39.41 92.5501C39.3968 92.7332 39.3406 92.9105 39.246 93.0678C39.1513 93.2251 39.0209 93.3579 38.8653 93.4553L16.511 106.355C16.2069 106.532 15.9663 106.404 15.9663 106.079C15.9784 105.896 16.0341 105.718 16.1289 105.56C16.2236 105.403 16.3546 105.27 16.511 105.174Z" fill="#C8E6C9"/>
<path d="M16.511 109.905L38.8653 97.0056C39.1695 96.8288 39.41 96.9561 39.41 97.2814C39.398 97.4648 39.3422 97.6426 39.2475 97.8001C39.1527 97.9575 39.0217 98.0901 38.8653 98.1866L16.511 111.086C16.2069 111.263 15.9663 111.136 15.9663 110.81C15.9795 110.627 16.0357 110.45 16.1304 110.293C16.225 110.135 16.3554 110.002 16.511 109.905Z" fill="#C8E6C9"/>
<path d="M42.1194 90.3931L56.1686 82.3097C56.4728 82.14 56.7133 82.2602 56.7133 82.5855C56.7012 82.7698 56.6455 82.9486 56.5508 83.1072C56.4561 83.2658 56.3251 83.3997 56.1686 83.4978L42.1194 91.5742C41.8223 91.751 41.5747 91.6237 41.5747 91.2983C41.5884 91.1154 41.6448 90.9382 41.7394 90.781C41.834 90.6238 41.9642 90.491 42.1194 90.3931Z" fill="#C8E6C9"/>
<path d="M42.1194 95.1243L56.1686 87.0409C56.4728 86.8712 56.7133 86.9914 56.7133 87.3238C56.7001 87.5069 56.6439 87.6843 56.5493 87.8416C56.4546 87.9989 56.3242 88.1316 56.1686 88.2291L42.1194 96.3054C41.8223 96.4822 41.5747 96.3549 41.5747 96.0296C41.5895 95.8469 41.6464 95.6701 41.7409 95.5131C41.8353 95.3561 41.9649 95.223 42.1194 95.1243Z" fill="#C8E6C9"/>
<path d="M8.31211 109.905L13.3701 106.984C13.6672 106.808 13.9148 106.935 13.9148 107.26C13.9011 107.443 13.8447 107.62 13.7501 107.777C13.6555 107.935 13.5253 108.068 13.3701 108.165L8.31211 111.086C8.00792 111.263 7.7674 111.143 7.7674 110.81C7.78057 110.627 7.83677 110.45 7.93141 110.293C8.02606 110.135 8.15649 110.003 8.31211 109.905Z" fill="#4CAF4F"/>
<path opacity="0.6" d="M8.31211 109.905L13.3701 106.984C13.6672 106.808 13.9148 106.935 13.9148 107.26C13.9011 107.443 13.8447 107.62 13.7501 107.777C13.6555 107.935 13.5253 108.068 13.3701 108.165L8.31211 111.086C8.00792 111.263 7.7674 111.143 7.7674 110.81C7.78057 110.627 7.83677 110.45 7.93141 110.293C8.02606 110.135 8.15649 110.003 8.31211 109.905Z" fill="white"/>
<path d="M8.31211 114.636L13.3701 111.715C13.6672 111.546 13.9148 111.666 13.9148 111.991C13.9011 112.174 13.8447 112.351 13.7501 112.509C13.6555 112.666 13.5253 112.799 13.3701 112.897L8.31211 115.824C8.00792 115.994 7.7674 115.874 7.7674 115.549C7.77948 115.364 7.83517 115.185 7.92987 115.027C8.02457 114.868 8.15557 114.734 8.31211 114.636Z" fill="#4CAF4F"/>
<path opacity="0.6" d="M8.31211 114.636L13.3701 111.715C13.6672 111.546 13.9148 111.666 13.9148 111.991C13.9011 112.174 13.8447 112.351 13.7501 112.509C13.6555 112.666 13.5253 112.799 13.3701 112.897L8.31211 115.824C8.00792 115.994 7.7674 115.874 7.7674 115.549C7.77948 115.364 7.83517 115.185 7.92987 115.027C8.02457 114.868 8.15557 114.734 8.31211 114.636Z" fill="white"/>
<path d="M35.4626 42.0199L41.9426 38.2929C42.2397 38.1161 42.4873 38.2434 42.4873 38.5687C42.4735 38.7517 42.4171 38.9289 42.3225 39.0861C42.2279 39.2433 42.0978 39.3761 41.9426 39.474L35.4626 43.201C35.1585 43.3778 34.9109 43.2576 34.9109 42.9252C34.9254 42.7416 34.9829 42.564 35.0787 42.4067C35.1746 42.2495 35.3061 42.117 35.4626 42.0199Z" fill="#4CAF4F"/>
<path opacity="0.6" d="M35.4626 42.0199L41.9426 38.2929C42.2397 38.1161 42.4873 38.2434 42.4873 38.5687C42.4735 38.7517 42.4171 38.9289 42.3225 39.0861C42.2279 39.2433 42.0978 39.3761 41.9426 39.474L35.4626 43.201C35.1585 43.3778 34.9109 43.2576 34.9109 42.9252C34.9254 42.7416 34.9829 42.564 35.0787 42.4067C35.1746 42.2495 35.3061 42.117 35.4626 42.0199Z" fill="white"/>
<path d="M16.122 76.8006L47.6938 58.6041C47.9909 58.4273 48.2385 58.5546 48.2385 58.8799C48.2248 59.0628 48.1684 59.24 48.0738 59.3972C47.9792 59.5544 47.8491 59.6873 47.6938 59.7851L16.122 77.9746C15.8249 78.1514 15.5773 78.0241 15.5773 77.6988C15.5921 77.5171 15.649 77.3413 15.7435 77.1854C15.8381 77.0295 15.9677 76.8978 16.122 76.8006Z" fill="#E8F5E9"/>
<path d="M8.31211 86.1569L56.2889 58.3918C56.5931 58.215 56.8336 58.3423 56.8336 58.6676C56.8215 58.851 56.7658 59.0288 56.6711 59.1863C56.5763 59.3438 56.4453 59.4763 56.2889 59.5728L8.31211 87.3379C8.00792 87.5147 7.7674 87.3874 7.7674 87.0621C7.77944 86.8787 7.83517 86.7009 7.92992 86.5434C8.02468 86.386 8.15571 86.2534 8.31211 86.1569Z" fill="#E8F5E9"/>
<path d="M49.809 57.3805L56.2889 53.6535C56.5931 53.4767 56.8336 53.604 56.8336 53.9293C56.8215 54.1127 56.7658 54.2905 56.671 54.448C56.5763 54.6055 56.4453 54.738 56.2889 54.8346L49.809 58.5686C49.5048 58.7384 49.2643 58.6182 49.2643 58.2858C49.2774 58.1027 49.3336 57.9253 49.4283 57.768C49.5229 57.6107 49.6533 57.478 49.809 57.3805Z" fill="#E8F5E9"/>
<path d="M16.511 57.6917L41.5393 43.2363C41.8434 43.0595 42.091 43.1868 42.091 43.5121C42.0765 43.6957 42.019 43.8733 41.9232 44.0305C41.8273 44.1878 41.6958 44.3203 41.5393 44.4173L16.511 58.8798C16.2068 59.0566 15.9592 58.9293 15.9592 58.604C15.9715 58.4189 16.028 58.2394 16.124 58.0807C16.22 57.9219 16.3527 57.7885 16.511 57.6917Z" fill="#4CAF4F"/>
<path opacity="0.6" d="M16.511 57.6917L41.5393 43.2363C41.8434 43.0595 42.091 43.1868 42.091 43.5121C42.0765 43.6957 42.019 43.8733 41.9232 44.0305C41.8273 44.1878 41.6958 44.3203 41.5393 44.4173L16.511 58.8798C16.2068 59.0566 15.9592 58.9293 15.9592 58.604C15.9715 58.4189 16.028 58.2394 16.124 58.0807C16.22 57.9219 16.3527 57.7885 16.511 57.6917Z" fill="white"/>
<path d="M43.6615 42.0129L50.1414 38.2859C50.4385 38.1091 50.6861 38.2293 50.6861 38.5617C50.6713 38.7444 50.6144 38.9212 50.5199 39.0782C50.4254 39.2352 50.2959 39.3683 50.1414 39.467L43.6615 43.194C43.3573 43.3708 43.1097 43.2435 43.1097 42.9181C43.1243 42.7346 43.1818 42.557 43.2776 42.3997C43.3735 42.2425 43.505 42.11 43.6615 42.0129Z" fill="#4CAF4F"/>
<path opacity="0.6" d="M43.6615 42.0129L50.1414 38.2859C50.4385 38.1091 50.6861 38.2293 50.6861 38.5617C50.6713 38.7444 50.6144 38.9212 50.5199 39.0782C50.4254 39.2352 50.2959 39.3683 50.1414 39.467L43.6615 43.194C43.3573 43.3708 43.1097 43.2435 43.1097 42.9181C43.1243 42.7346 43.1818 42.557 43.2776 42.3997C43.3735 42.2425 43.505 42.11 43.6615 42.0129Z" fill="white"/>
</svg>
