<svg width="78" height="15" viewBox="0 0 78 15" fill="none" xmlns="http://www.w3.org/2000/svg">
<path d="M11.8559 0V14.1745H9.26741L3.10067 5.25315H2.99686V14.1745H0V0H2.63004L8.74833 8.91444H8.87291V0H11.8559Z" fill="#263238"/>
<path d="M19.1214 14.3821C18.0279 14.3821 17.0866 14.1607 16.2976 13.7177C15.5132 13.2701 14.9087 12.638 14.4842 11.8213C14.0597 11 13.8475 10.0287 13.8475 8.90751C13.8475 7.81397 14.0597 6.85424 14.4842 6.02832C14.9087 5.20239 15.5063 4.55873 16.2768 4.09732C17.052 3.63591 17.9609 3.4052 19.0037 3.4052C19.7051 3.4052 20.358 3.51825 20.9624 3.74434C21.5715 3.96582 22.1021 4.30034 22.5543 4.74791C23.0111 5.19547 23.3664 5.75839 23.6201 6.43667C23.8739 7.11032 24.0008 7.89933 24.0008 8.8037V9.61347H15.0241V7.78629H21.2254C21.2254 7.36179 21.1331 6.98574 20.9486 6.65814C20.764 6.33054 20.5079 6.07446 20.1803 5.88989C19.8573 5.70072 19.4813 5.60613 19.0522 5.60613C18.6046 5.60613 18.2078 5.70994 17.8617 5.91758C17.5203 6.1206 17.2527 6.39514 17.0589 6.7412C16.8651 7.08264 16.7659 7.4633 16.7613 7.88318V9.62039C16.7613 10.1464 16.8582 10.6009 17.052 10.9839C17.2504 11.3668 17.5295 11.6621 17.8894 11.8698C18.2493 12.0774 18.6761 12.1812 19.1698 12.1812C19.4974 12.1812 19.7974 12.1351 20.0696 12.0428C20.3418 11.9505 20.5748 11.8121 20.7686 11.6275C20.9624 11.443 21.1101 11.2169 21.2116 10.9493L23.9385 11.1292C23.8001 11.7844 23.5163 12.3566 23.0872 12.8456C22.6627 13.3301 22.1136 13.7085 21.44 13.9807C20.7709 14.2483 19.9981 14.3821 19.1214 14.3821Z" fill="#263238"/>
<path d="M28.1985 3.54363L30.1502 7.26028L32.1505 3.54363H35.175L32.0951 8.85907L35.258 14.1745H32.2473L30.1502 10.4994L28.0877 14.1745H25.0424L28.1985 8.85907L25.1532 3.54363H28.1985Z" fill="#263238"/>
<path d="M41.3487 14.3821C40.2597 14.3821 39.3231 14.1514 38.5387 13.69C37.7589 13.224 37.1591 12.578 36.7392 11.7521C36.3239 10.9262 36.1163 9.97568 36.1163 8.90059C36.1163 7.81167 36.3262 6.85655 36.7461 6.03524C37.1706 5.20932 37.7727 4.56565 38.5525 4.10424C39.3323 3.63822 40.2597 3.4052 41.3348 3.4052C42.2622 3.4052 43.0743 3.57362 43.7711 3.91045C44.4678 4.24728 45.0192 4.72022 45.4252 5.32928C45.8312 5.93834 46.055 6.65353 46.0966 7.47484H43.3143C43.2358 6.94422 43.0282 6.51741 42.6914 6.19443C42.3591 5.86682 41.9231 5.70302 41.3833 5.70302C40.9265 5.70302 40.5273 5.8276 40.1859 6.07677C39.8491 6.32131 39.5861 6.67891 39.3969 7.14954C39.2077 7.62018 39.1131 8.19002 39.1131 8.85907C39.1131 9.53734 39.2054 10.1141 39.39 10.5894C39.5791 11.0646 39.8445 11.4268 40.1859 11.676C40.5273 11.9251 40.9265 12.0497 41.3833 12.0497C41.7201 12.0497 42.0223 11.9805 42.2899 11.8421C42.5622 11.7037 42.7859 11.5029 42.9613 11.2399C43.1412 10.9723 43.2589 10.6516 43.3143 10.2779H46.0966C46.0504 11.09 45.8289 11.8052 45.4321 12.4235C45.0399 13.0371 44.4978 13.517 43.8057 13.8631C43.1135 14.2091 42.2945 14.3821 41.3487 14.3821Z" fill="#263238"/>
<path d="M52.8291 14.3821C51.7356 14.3821 50.7943 14.1607 50.0053 13.7177C49.2209 13.2701 48.6164 12.638 48.1919 11.8213C47.7674 11 47.5552 10.0287 47.5552 8.90751C47.5552 7.81397 47.7674 6.85424 48.1919 6.02832C48.6164 5.20239 49.214 4.55873 49.9845 4.09732C50.7597 3.63591 51.6687 3.4052 52.7114 3.4052C53.4128 3.4052 54.0657 3.51825 54.6701 3.74434C55.2792 3.96582 55.8098 4.30034 56.262 4.74791C56.7188 5.19547 57.0741 5.75839 57.3278 6.43667C57.5816 7.11032 57.7085 7.89933 57.7085 8.8037V9.61347H48.7318V7.78629H54.9331C54.9331 7.36179 54.8408 6.98574 54.6563 6.65814C54.4717 6.33054 54.2156 6.07446 53.888 5.88989C53.565 5.70072 53.189 5.60613 52.7599 5.60613C52.3123 5.60613 51.9155 5.70994 51.5695 5.91758C51.228 6.1206 50.9604 6.39514 50.7666 6.7412C50.5728 7.08264 50.4736 7.4633 50.469 7.88318V9.62039C50.469 10.1464 50.5659 10.6009 50.7597 10.9839C50.9581 11.3668 51.2372 11.6621 51.5971 11.8698C51.957 12.0774 52.3838 12.1812 52.8775 12.1812C53.2051 12.1812 53.5051 12.1351 53.7773 12.0428C54.0495 11.9505 54.2825 11.8121 54.4763 11.6275C54.6701 11.443 54.8178 11.2169 54.9193 10.9493L57.6462 11.1292C57.5078 11.7844 57.224 12.3566 56.7949 12.8456C56.3704 13.3301 55.8213 13.7085 55.1477 13.9807C54.4786 14.2483 53.7058 14.3821 52.8291 14.3821Z" fill="#263238"/>
<path d="M62.581 8.02853V14.1745H59.6326V3.54363H62.4426V5.41926H62.5672C62.8025 4.80097 63.197 4.31187 63.7507 3.95197C64.3044 3.58746 64.9757 3.4052 65.7647 3.4052C66.503 3.4052 67.1466 3.5667 67.6957 3.88968C68.2448 4.21267 68.6716 4.67408 68.9761 5.27391C69.2807 5.86913 69.4329 6.5797 69.4329 7.40563V14.1745H66.4845V7.93163C66.4891 7.28105 66.323 6.77349 65.9862 6.40898C65.6494 6.03985 65.1857 5.85529 64.595 5.85529C64.1982 5.85529 63.8476 5.94065 63.543 6.11137C63.2431 6.28209 63.0078 6.53125 62.8371 6.85886C62.671 7.18184 62.5856 7.57173 62.581 8.02853Z" fill="#263238"/>
<path d="M77.4113 3.54363V5.75839H71.0092V3.54363H77.4113ZM72.4627 0.996645H75.4111V10.9077C75.4111 11.18 75.4526 11.3922 75.5356 11.5445C75.6187 11.6921 75.7341 11.7959 75.8817 11.8559C76.034 11.9159 76.2093 11.9459 76.4077 11.9459C76.5461 11.9459 76.6846 11.9344 76.823 11.9113C76.9614 11.8836 77.0675 11.8628 77.1414 11.849L77.6051 14.043C77.4574 14.0891 77.2498 14.1422 76.9822 14.2022C76.7145 14.2668 76.3893 14.306 76.0063 14.3199C75.2957 14.3475 74.6728 14.2529 74.1376 14.0361C73.607 13.8192 73.194 13.4824 72.8987 13.0256C72.6034 12.5688 72.458 11.992 72.4627 11.2953V0.996645Z" fill="#263238"/>
</svg>
