<svg width="13" height="13" viewBox="0 0 13 13" fill="none" xmlns="http://www.w3.org/2000/svg">
<g clip-path="url(#clip0_4302_230)">
<path fill-rule="evenodd" clip-rule="evenodd" d="M11.8543 0.675015C11.9961 0.816824 12.0442 1.02733 11.9779 1.21662L8.32354 11.6577C8.25283 11.8597 8.06595 11.9981 7.85208 12.0068C7.6382 12.0155 7.44067 11.8928 7.35374 11.6972L5.34708 7.18224L0.832094 5.17558C0.636491 5.08865 0.513775 4.89112 0.522501 4.67725C0.531226 4.46337 0.669624 4.27649 0.871659 4.20578L11.3127 0.551418C11.502 0.485167 11.7125 0.533206 11.8543 0.675015ZM6.36526 6.90235L7.77306 10.0699L10.2367 3.03093L6.36526 6.90235ZM9.4984 2.29263L2.45944 4.75627L5.62697 6.16406L9.4984 2.29263Z" fill="white"/>
</g>
<defs>
<clipPath id="clip0_4302_230">
<rect width="12.5293" height="12.5293" fill="white"/>
</clipPath>
</defs>
</svg>
