<svg width="23" height="23" viewBox="0 0 23 23" fill="none" xmlns="http://www.w3.org/2000/svg">
<path opacity="0.1" fill-rule="evenodd" clip-rule="evenodd" d="M0 11.1371C0 4.98625 4.98625 0 11.1371 0C17.288 0 22.2742 4.98625 22.2742 11.1371C22.2742 17.288 17.288 22.2742 11.1371 22.2742C4.98625 22.2742 0 17.288 0 11.1371Z" fill="white"/>
<path fill-rule="evenodd" clip-rule="evenodd" d="M11.1376 5.19727C9.52445 5.19727 9.322 5.20432 8.68842 5.23315C8.05607 5.26211 7.62444 5.36222 7.24676 5.50911C6.85609 5.66082 6.5247 5.86377 6.19454 6.19405C5.86414 6.5242 5.66119 6.8556 5.50898 7.24614C5.36173 7.62394 5.26149 8.0557 5.23303 8.6878C5.20469 9.32138 5.19727 9.52395 5.19727 11.1371C5.19727 12.7503 5.20444 12.9521 5.23315 13.5857C5.26223 14.218 5.36234 14.6497 5.50911 15.0274C5.66095 15.418 5.86389 15.7494 6.19417 16.0796C6.5242 16.41 6.8556 16.6134 7.24602 16.7651C7.62394 16.912 8.0557 17.0121 8.68792 17.0411C9.3215 17.0699 9.52383 17.077 11.1369 17.077C12.7502 17.077 12.952 17.0699 13.5856 17.0411C14.2179 17.0121 14.6501 16.912 15.028 16.7651C15.4185 16.6134 15.7494 16.41 16.0795 16.0796C16.4099 15.7494 16.6128 15.418 16.765 15.0275C16.911 14.6497 17.0113 14.2179 17.041 13.5858C17.0694 12.9522 17.0769 12.7503 17.0769 11.1371C17.0769 9.52395 17.0694 9.3215 17.041 8.68792C17.0113 8.05557 16.911 7.62394 16.765 7.24627C16.6128 6.8556 16.4099 6.5242 16.0795 6.19405C15.749 5.86364 15.4186 5.6607 15.0276 5.50911C14.6489 5.36222 14.2171 5.26211 13.5847 5.23315C12.9511 5.20432 12.7494 5.19727 11.1358 5.19727H11.1376ZM10.6047 6.26766C10.7629 6.26741 10.9393 6.26766 11.1376 6.26766C12.7235 6.26766 12.9115 6.27335 13.5378 6.30181C14.1169 6.3283 14.4312 6.42507 14.6406 6.50637C14.9178 6.61403 15.1154 6.74272 15.3232 6.95062C15.5311 7.15851 15.6598 7.35651 15.7677 7.6337C15.849 7.84284 15.9459 8.15715 15.9723 8.73629C16.0007 9.36245 16.0069 9.55054 16.0069 11.1357C16.0069 12.7209 16.0007 12.909 15.9723 13.5352C15.9458 14.1143 15.849 14.4286 15.7677 14.6378C15.66 14.915 15.5311 15.1124 15.3232 15.3201C15.1153 15.528 14.9179 15.6567 14.6406 15.7644C14.4315 15.846 14.1169 15.9426 13.5378 15.9691C12.9116 15.9975 12.7235 16.0037 11.1376 16.0037C9.55153 16.0037 9.36355 15.9975 8.73739 15.9691C8.15826 15.9423 7.84394 15.8456 7.63444 15.7643C7.35724 15.6566 7.15925 15.5279 6.95135 15.32C6.74346 15.1121 6.61476 14.9146 6.50685 14.6373C6.42555 14.4282 6.32866 14.1138 6.3023 13.5347C6.27384 12.9085 6.26815 12.7204 6.26815 11.1343C6.26815 9.54807 6.27384 9.36096 6.3023 8.7348C6.32878 8.15567 6.42555 7.84135 6.50685 7.63197C6.61451 7.35478 6.74346 7.15678 6.95135 6.94889C7.15925 6.74099 7.35724 6.6123 7.63444 6.50439C7.84382 6.42272 8.15826 6.32619 8.73739 6.29959C9.28535 6.27484 9.49769 6.26741 10.6047 6.26618V6.26766ZM14.3082 7.25393C13.9147 7.25393 13.5955 7.57282 13.5955 7.96646C13.5955 8.35998 13.9147 8.67924 14.3082 8.67924C14.7018 8.67924 15.021 8.35998 15.021 7.96646C15.021 7.57295 14.7018 7.25393 14.3082 7.25393ZM11.1376 8.08674C9.45306 8.08674 8.08726 9.45254 8.08726 11.1371C8.08726 12.8217 9.45306 14.1868 11.1376 14.1868C12.8222 14.1868 14.1875 12.8217 14.1875 11.1371C14.1875 9.45254 12.8222 8.08674 11.1376 8.08674ZM11.1376 9.15715C12.231 9.15715 13.1176 10.0436 13.1176 11.1371C13.1176 12.2305 12.231 13.1171 11.1376 13.1171C10.0441 13.1171 9.15765 12.2305 9.15765 11.1371C9.15765 10.0436 10.0441 9.15715 11.1376 9.15715Z" fill="white"/>
</svg>
