<svg width="23" height="23" viewBox="0 0 23 23" fill="none" xmlns="http://www.w3.org/2000/svg">
<path opacity="0.1" fill-rule="evenodd" clip-rule="evenodd" d="M0 11.1371C0 4.98625 4.98625 0 11.1371 0C17.288 0 22.2742 4.98625 22.2742 11.1371C22.2742 17.288 17.288 22.2742 11.1371 22.2742C4.98625 22.2742 0 17.288 0 11.1371Z" fill="white"/>
<path fill-rule="evenodd" clip-rule="evenodd" d="M17.0769 11.1288C17.0769 11.5305 17.036 11.9317 16.9556 12.3227C16.8773 12.7044 16.7613 13.0792 16.6093 13.4374C16.4608 13.7894 16.2766 14.1285 16.0614 14.4447C15.8494 14.759 15.6052 15.0539 15.3369 15.3226C15.068 15.5902 14.7722 15.8338 14.4581 16.0467C14.1408 16.2604 13.8011 16.4443 13.449 16.5935C13.0902 16.7447 12.7146 16.8605 12.3332 16.9387C11.9417 17.0192 11.5391 17.0604 11.1368 17.0604C10.7342 17.0604 10.3316 17.0192 9.94066 16.9387C9.55868 16.8605 9.18307 16.7447 8.82457 16.5935C8.47246 16.4443 8.13252 16.2604 7.81521 16.0467C7.5011 15.8338 7.20525 15.5902 6.93696 15.3226C6.66839 15.0539 6.42416 14.759 6.21185 14.4447C5.9978 14.1285 5.81332 13.7893 5.66424 13.4374C5.51224 13.0792 5.39595 12.7044 5.31735 12.3227C5.23788 11.9317 5.19727 11.5305 5.19727 11.1288C5.19727 10.7268 5.23786 10.3248 5.31737 9.93467C5.39597 9.55294 5.51227 9.17759 5.66427 8.81991C5.81334 8.46774 5.99782 8.1283 6.21187 7.81202C6.42418 7.49749 6.66841 7.20322 6.93698 6.93415C7.20528 6.66652 7.50112 6.42355 7.81524 6.21097C8.13254 5.99634 8.47248 5.81245 8.82459 5.66299C9.18309 5.51149 9.55868 5.39536 9.94068 5.31775C10.3317 5.23782 10.7342 5.19727 11.1368 5.19727C11.5391 5.19727 11.9417 5.23782 12.3332 5.31775C12.7146 5.39539 13.0902 5.51151 13.449 5.66299C13.8011 5.81243 14.1408 5.99634 14.4581 6.21097C14.7722 6.42355 15.0681 6.66652 15.3369 6.93415C15.6052 7.20322 15.8494 7.49749 16.0615 7.81202C16.2766 8.1283 16.4608 8.46776 16.6093 8.81991C16.7613 9.17759 16.8773 9.55294 16.9556 9.93467C17.036 10.3248 17.0769 10.7268 17.0769 11.1288ZM8.97246 6.54721C7.5579 7.21423 6.50214 8.51581 6.17294 10.0844C6.30666 10.0856 8.4205 10.1122 10.856 9.46606C9.97804 7.90844 9.04004 6.63731 8.97246 6.54721ZM11.2763 10.2461C8.66443 11.0269 6.15815 10.9707 6.06824 10.9672C6.06678 11.0217 6.06417 11.0744 6.06417 11.1288C6.06417 12.4301 6.5558 13.6164 7.36386 14.5134C7.36212 14.5108 8.75029 12.0516 11.4877 11.1676C11.5538 11.1456 11.6211 11.1259 11.6878 11.1068C11.5605 10.8189 11.4216 10.5305 11.2763 10.2461ZM14.4868 7.32718C13.5937 6.54083 12.4211 6.06385 11.1368 6.06385C10.7246 6.06385 10.3246 6.11367 9.9415 6.20576C10.0175 6.30772 10.9703 7.5699 11.8378 9.1605C13.7518 8.44398 14.4743 7.34571 14.4868 7.32718ZM12.0336 11.9461C12.0223 11.9499 12.011 11.9531 12 11.9571C9.00706 12.999 8.02968 15.0987 8.01911 15.1216C8.88026 15.7903 9.96039 16.1938 11.1368 16.1938C11.8393 16.1938 12.5084 16.051 13.1172 15.7924C13.0421 15.3498 12.7474 13.7986 12.0336 11.9461ZM13.9714 15.3296C15.1104 14.5621 15.9193 13.3433 16.1449 11.9316C16.0405 11.898 14.6213 11.4494 12.984 11.7115C13.6494 13.5374 13.9197 15.0243 13.9714 15.3296ZM12.2282 9.91528C12.346 10.1568 12.46 10.4027 12.5653 10.6498C12.6027 10.7384 12.6392 10.8253 12.6749 10.9122C14.4175 10.6932 16.1343 11.0616 16.2076 11.0767C16.196 9.87588 15.7659 8.77385 15.0542 7.91107C15.0446 7.92465 14.231 9.09851 12.2282 9.91528Z" fill="white"/>
</svg>
