<svg width="46" height="39" viewBox="0 0 46 39" fill="none" xmlns="http://www.w3.org/2000/svg">
<path d="M45.2445 26.4506C45.2445 33.3703 39.635 38.9799 32.7153 38.9799L13.9214 38.9799C11.9993 38.9799 10.4411 37.4217 10.4411 35.4995L10.4411 11.8331C10.4411 7.98886 13.5575 4.87245 17.4018 4.87245L41.7642 4.87246C43.6863 4.87246 45.2445 6.43066 45.2445 8.3528L45.2445 26.4506Z" fill="#E8F5E9"/>
<path d="M19.7069 16.4583C19.5393 16.4583 19.3837 16.4123 19.2455 16.3381V16.3401C19.2455 16.6038 19.143 16.8514 18.957 17.0369C18.771 17.2229 18.5236 17.3254 18.2602 17.3254C18.0901 17.3254 17.9325 17.2782 17.7928 17.2021C17.7787 17.4433 17.6823 17.6688 17.5103 17.841C17.3243 18.027 17.0768 18.1295 16.8133 18.1295C16.2896 18.1295 15.8644 17.7178 15.8337 17.2019C15.6717 17.2895 15.4885 17.3354 15.2996 17.3233C14.7845 17.2895 14.3811 16.8444 14.3811 16.3098V11.8781L13.8765 12.7524C13.6843 13.0868 13.3245 13.2944 12.9371 13.2944C12.7483 13.2944 12.5619 13.2448 12.3968 13.1502C12.1911 13.031 12.044 12.8396 11.9828 12.6107C11.9213 12.3816 11.9532 12.142 12.072 11.9366C12.0722 11.9366 13.7231 9.07774 13.8238 8.90213C13.8358 8.87573 13.8699 8.79914 13.8989 8.73387C13.9267 8.67156 13.9504 8.6076 13.9732 8.54331C14.4711 7.13775 15.7039 6.26465 17.1906 6.26465C19.1213 6.26465 20.692 7.96786 20.692 10.0614L20.6922 15.4729C20.6922 15.7363 20.5898 15.9838 20.404 16.1699C20.2181 16.3559 19.9706 16.4584 19.7069 16.4584L19.7069 16.4583ZM17.1906 6.7882C15.9131 6.7882 14.8949 7.50978 14.4667 8.71841C14.4393 8.79515 14.4108 8.8719 14.3775 8.94668C14.2809 9.16332 14.2809 9.16332 14.2537 9.19447L14.2501 9.19136C14.1153 9.44571 13.7148 10.1392 12.5254 12.1987C12.4765 12.2831 12.4635 12.3812 12.4885 12.475C12.5137 12.5688 12.5742 12.6478 12.658 12.6962C12.9181 12.8456 13.2743 12.7492 13.4226 12.4909L14.4162 10.7706C14.4756 10.6681 14.5956 10.6178 14.7107 10.6489C14.8252 10.6796 14.9047 10.7834 14.9047 10.9018V16.3099C14.9047 16.5651 15.0973 16.7853 15.3339 16.8009C15.4704 16.8081 15.5976 16.7624 15.6932 16.6669C15.7801 16.58 15.828 16.4642 15.828 16.3404V12.8034C15.828 12.6588 15.9453 12.5415 16.0899 12.5415C16.2346 12.5415 16.3518 12.6586 16.3518 12.8034L16.3517 17.1444C16.3517 17.3989 16.5588 17.606 16.8133 17.606C16.9369 17.606 17.053 17.5581 17.1401 17.4712C17.227 17.3841 17.2749 17.268 17.2749 17.1444V12.8034C17.2749 12.6588 17.392 12.5415 17.5368 12.5415C17.6815 12.5415 17.7987 12.6586 17.7987 12.8034L17.7986 16.2997V16.3404C17.7986 16.5947 18.0057 16.8019 18.2604 16.8019C18.3838 16.8019 18.4996 16.7538 18.5872 16.6666C18.6741 16.5798 18.722 16.464 18.722 16.3402V12.8032C18.722 12.6586 18.8391 12.5413 18.9839 12.5413C19.1285 12.5413 19.2458 12.6584 19.2458 12.8032L19.2455 15.473C19.2455 15.7277 19.4526 15.9348 19.7069 15.9348C19.8307 15.9348 19.9465 15.8868 20.0334 15.8C20.1207 15.7128 20.1684 15.5967 20.1684 15.473L20.1686 10.0616C20.1686 8.25683 18.8327 6.78825 17.1906 6.78825L17.1906 6.7882Z" fill="#103E13"/>
<path d="M9.41726 20.2195L13.2176 17.9396C13.6758 17.6644 14.2654 17.7814 14.5592 18.2059C14.6665 18.3606 14.7213 18.5408 14.7298 18.7243C14.8715 18.6504 15.0256 18.6102 15.1826 18.6102C15.2629 18.6102 15.3436 18.6202 15.4233 18.64C15.6786 18.7038 15.8938 18.8634 16.0291 19.089C16.1646 19.315 16.2041 19.5799 16.1403 19.8349C16.0814 20.0709 15.9379 20.2695 15.7383 20.4058C15.8779 20.4881 15.9983 20.6004 16.0839 20.7434C16.2193 20.9694 16.2589 21.2341 16.1952 21.4894C16.1314 21.7445 15.9719 21.9596 15.7459 22.0953L15.7446 22.0961C15.8817 22.1782 15.9999 22.2894 16.0845 22.4303C16.2202 22.6563 16.2597 22.9211 16.1959 23.1764C16.1319 23.4316 15.9724 23.6468 15.7467 23.7822L11.1064 26.566C10.2404 27.0854 9.2392 27.2646 8.28772 27.0703C7.32772 26.8742 6.53266 26.3224 6.04924 25.5165C5.2842 24.2414 5.39885 22.735 6.34787 21.5852C6.39133 21.5328 6.43413 21.4793 6.47299 21.4239C6.51416 21.3653 6.56221 21.2964 6.5786 21.2728C6.67683 21.0973 8.27972 18.2094 8.27955 18.2098C8.44141 17.9177 8.7448 17.7524 9.05769 17.7525C9.20364 17.7525 9.35173 17.7885 9.48834 17.8642C9.65332 17.9564 9.79189 18.0907 9.88881 18.2526C10.0881 18.5846 10.0951 19.0002 9.90751 19.3365L9.41726 20.2195ZM9.44006 18.5218C9.38922 18.437 9.31936 18.3694 9.23392 18.3215C9.0573 18.2238 8.83492 18.2874 8.73769 18.4634C7.59074 20.5297 7.19976 21.2339 7.04888 21.4845L7.05232 21.4853C7.03969 21.5273 7.03969 21.5273 6.90161 21.7246C6.85471 21.7913 6.80371 21.8554 6.75172 21.9186C5.93568 22.9073 5.84092 24.1515 6.49803 25.2471C6.90505 25.9257 7.57776 26.391 8.3923 26.5572C9.21569 26.7247 10.0835 26.5689 10.8368 26.1169L15.4775 23.333C15.5834 23.2696 15.6582 23.1687 15.6881 23.0492C15.7179 22.9298 15.6994 22.8056 15.6357 22.6997C15.5049 22.4816 15.2207 22.4099 15.0026 22.5413L12.7132 23.9147C12.5893 23.9892 12.4282 23.9492 12.3539 23.825C12.2795 23.701 12.3197 23.5402 12.4436 23.4657L14.7331 22.0923L15.4767 21.6462C15.5826 21.5826 15.6576 21.4817 15.6874 21.3625C15.7172 21.2429 15.6987 21.1186 15.6351 21.0129C15.5041 20.7946 15.2199 20.7236 15.0019 20.8544L11.9689 22.6739C11.8446 22.7486 11.684 22.7082 11.6096 22.5842C11.5351 22.4603 11.5755 22.2994 11.6993 22.2249L15.4217 19.9919C15.5277 19.9282 15.6025 19.8275 15.6323 19.708C15.6622 19.5886 15.6436 19.4645 15.5802 19.3585C15.5167 19.2528 15.4158 19.178 15.2963 19.1481C15.1761 19.1183 15.0524 19.1368 14.9468 19.2001L14.2577 19.6135C14.2576 19.6135 14.2576 19.6137 14.2574 19.6137H14.2572L11.2244 21.4332C11.1001 21.508 10.9393 21.4676 10.8651 21.3435C10.7906 21.2195 10.8309 21.0587 10.9548 20.9842L13.9878 19.1647C14.0937 19.1011 14.1687 19.0002 14.1985 18.881C14.2313 18.7501 14.2064 18.6163 14.1287 18.5041C13.9939 18.3091 13.7056 18.2573 13.487 18.3887L8.84963 21.1707C8.74811 21.2313 8.61807 21.2166 8.53296 21.1344C8.44768 21.0521 8.42849 20.9227 8.48589 20.8192L9.45018 19.0819C9.54693 18.9082 9.54316 18.6937 9.44001 18.5218L9.44006 18.5218Z" fill="#103E13"/>
<path d="M27.577 25.5163C27.0937 26.3223 26.2989 26.874 25.3387 27.0701C24.387 27.2642 23.3862 27.0852 22.52 26.5659L17.8793 23.7819C17.6535 23.6465 17.4937 23.4313 17.4298 23.1758C17.3663 22.9208 17.406 22.6559 17.5413 22.4303C17.6257 22.2893 17.7441 22.1781 17.8814 22.0959L17.8801 22.0951C17.6543 21.9596 17.4946 21.7445 17.4309 21.4893C17.367 21.2341 17.4067 20.9691 17.5421 20.7431C17.6294 20.598 17.7489 20.4845 17.8854 20.404C17.6873 20.2677 17.5446 20.0698 17.4859 19.8349C17.4219 19.5796 17.4616 19.3147 17.5971 19.0891C17.7324 18.8633 17.9477 18.7037 18.2029 18.6399C18.2826 18.6199 18.3634 18.6101 18.4434 18.6101C18.6005 18.6102 18.7547 18.6501 18.8964 18.7242C18.9051 18.5407 18.9597 18.3605 19.0669 18.2058C19.361 17.7816 19.95 17.6642 20.4089 17.9395L24.2091 20.219L23.7193 19.3367C23.5313 18.9999 23.5382 18.5843 23.7375 18.252C23.8345 18.0903 23.9733 17.956 24.1391 17.8631C24.2754 17.7876 24.423 17.7519 24.5686 17.7519C24.8813 17.752 25.185 17.917 25.3467 18.2091C25.9102 19.2244 26.9735 21.1392 27.0483 21.2728C27.0642 21.2959 27.1122 21.3648 27.1534 21.4234C27.1926 21.479 27.2349 21.5321 27.2787 21.5849C28.2276 22.7351 28.342 24.2414 27.577 25.5163L27.577 25.5163ZM26.8747 21.9187C26.8225 21.8555 26.7713 21.7911 26.7248 21.7246C26.5831 21.5236 26.5795 21.5183 26.5688 21.4657C26.4032 21.1917 25.9991 20.4642 24.8884 18.4631C24.791 18.2875 24.5696 18.2234 24.3933 18.3208C24.3065 18.3693 24.2368 18.4371 24.186 18.5219C24.083 18.6936 24.0791 18.9081 24.1763 19.0822L25.1403 20.8191C25.1978 20.9227 25.1787 21.0519 25.0935 21.1343C25.0086 21.2168 24.8787 21.2312 24.7767 21.1705L20.1394 18.3885C19.9208 18.2575 19.6326 18.3088 19.4975 18.504C19.4198 18.6161 19.395 18.75 19.4275 18.8807C19.4573 19.0001 19.5323 19.1007 19.6384 19.1644C19.6387 19.1645 19.6389 19.1649 19.6392 19.165L22.6713 20.984C22.7952 21.0585 22.8354 21.2192 22.761 21.3433C22.6865 21.4672 22.526 21.5077 22.4017 21.433L18.6792 19.2C18.5736 19.1367 18.4493 19.118 18.3299 19.148C18.2102 19.1778 18.1095 19.2526 18.046 19.3587C17.9824 19.4645 17.964 19.5886 17.9935 19.708C18.0234 19.8274 18.0983 19.9283 18.2043 19.9919L18.9286 20.4263L21.9266 22.225C22.0505 22.2995 22.0907 22.4602 22.0163 22.5843C21.9418 22.7081 21.7813 22.7485 21.657 22.674L18.6243 20.8545C18.4062 20.7233 18.1221 20.7945 17.9909 21.0129C17.9273 21.1189 17.9089 21.243 17.9384 21.3624C17.9683 21.4818 18.0432 21.5825 18.1493 21.6463L18.8929 22.0923L21.182 23.4658C21.306 23.5402 21.3462 23.7009 21.2717 23.8251C21.1973 23.9489 21.0367 23.9896 20.9124 23.9148L18.6233 22.5413C18.5177 22.478 18.3939 22.4593 18.2738 22.4893C18.1544 22.5192 18.0534 22.594 17.9899 22.6997C17.9265 22.8057 17.9079 22.93 17.9375 23.0492C17.9673 23.1686 18.0423 23.2693 18.1484 23.3331L22.7891 26.117C23.5421 26.5688 24.4106 26.7252 25.2335 26.5573C26.0479 26.391 26.7206 25.9258 27.1277 25.2472C27.7854 24.1514 27.6908 22.907 26.8749 21.9186L26.8747 21.9187Z" fill="#103E13"/>
</svg>
